<?xml version="1.0" standalone="no"?>
<!DOCTYPE svg PUBLIC "-//W3C//DTD SVG 1.1//EN" "http://www.w3.org/Graphics/SVG/1.1/DTD/svg11.dtd">
<svg xmlns="http://www.w3.org/2000/svg">
<metadata>Generated by Fontastic.me</metadata>
<defs>
<font id="school-education" horiz-adv-x="512">
<font-face font-family="school-education" units-per-em="512" ascent="480" descent="-32"/>
<missing-glyph horiz-adv-x="512" />

<glyph unicode="&#97;" d="M0 241l0-132 142 0 0 132z m41-109l-17 0 0 33 17 0z m0 53l-17 0 0 34 17 0z m38-53l-17 0 0 33 17 0z m0 53l-17 0 0 34 17 0z m39-53l-17 0 0 33 17 0z m0 53l-17 0 0 34 17 0z m252 56l0-132 142 0 0 132z m41-109l-17 0 0 33 17 0 0-33z m0 53l-17 0 0 34 17 0 0-34z m39-53l-17 0 0 33 17 0z m0 53l-17 0 0 34 17 0z m38-53l-17 0 0 33 17 0z m0 53l-17 0 0 34 17 0z m-337 123l0-199 210 0 0 199z m75-26l17 0 0-57-17 0z m-28-142l-17 0 0 57 17 0z m0 85l-17 0 0 57 17 0z m88-102l-60 0 0 74 60 0z m2 102l-17 0 0 57 17 0z m46-85l-17 0 0 57 17 0z m0 85l-17 0 0 57 17 0z m-78 144l-117-53 234 0z m-256-276l512 0 0-14-512 0z m0-30l512 0 0-14-512 0z m252 400l0-4c-14 5-28-11-42-2 0-11 0-21 0-32 14-9 28 7 42 2l0-70 8 0 0 106z"/>
<glyph unicode="&#98;" d="M191 1l126 86-116 66z m315 420c13 23 5 52-18 65l-32 19c-23 13-53 5-66-18l-22-40 115-66z m-146 13l-151-267 116-66 151 267z m-99-264l-9 6 125 220 9-5z m49-28l-9 5 125 221 10-5z m169 197l-10-16 0-30-6 0 0 19-26-45 43 0 0-14-51 0-23-40 3 0 0-25-6 0 0 19-9-15 0-4-2 0-4-7 109 0 0 158z m-55-151l-6 0 0 39 6 0z m15 0l-6 0 0 25 6 0z m15 0l-6 0 0 39 6 0z m15 0l-6 0 0 25 6 0z m15 0l-6 0 0 39 6 0z m0 119l-6 0 0 25 6 0z m-276-111l0 31 6 0 0-20 27 46-224 0 0 14 232 0 23 40-4 0 0 25 6 0 0-22 9 15 0 7 4 0 4 7-291 0 0-158 199 0z m-15 17l6 0 0-25-6 0z m60 119l6 0 0-39-6 0z m-15 0l6 0 0-25-6 0z m-15 0l6 0 0-39-6 0z m-15 0l6 0 0-25-6 0z m-15 0l6 0 0-39-6 0z m-15 0l6 0 0-25-6 0z m-15 0l6 0 0-39-6 0z m-15 0l6 0 0-25-6 0z m-15 0l6 0 0-39-6 0z m-15 0l6 0 0-25-6 0z m-15 0l6 0 0-39-6 0z m-15 0l6 0 0-25-6 0z m-15 0l6 0 0-39-6 0z m-15 0l6 0 0-25-6 0z m-15 0l6 0 0-39-6 0z m-15 0l6 0 0-25-6 0z m-15 0l6 0 0-39-6 0z m6-144l-6 0 0 25 6 0z m15 0l-6 0 0 39 6 0z m15 0l-6 0 0 25 6 0 0-25z m15 0l-6 0 0 39 6 0z m15 0l-6 0 0 25 6 0z m15 0l-6 0 0 39 6 0z m15 0l-6 0 0 25 6 0z m15 0l-6 0 0 39 6 0z m15 0l-6 0 0 25 6 0z m15 0l-6 0 0 39 6 0z m15 0l-6 0 0 25 6 0z m15 0l-6 0 0 39 6 0z"/>
<glyph unicode="&#99;" d="M498 398c0 24-19 44-42 44-24 0-43-20-43-44 0-24 19-44 43-44 23 0 42 20 42 44z m14-106c0 24-19 44-42 44l-21 0c-13 0-24-6-31-15l-77 82c-12 13-28 16-37 7-8-8-6-25 6-37l96-103 0-82c0-2 1-4 1-6 0-2-1-3-1-5l0-146c0-17 10-31 22-31 12 0 21 14 21 31l0 113 20 0 0-113c0-17 10-31 22-31 11 0 21 14 21 31l0 146c0 2 0 3 0 5 0 2 0 4 0 6z m-123-20l-42 42 0-50-293 0 0 201 293 0 0-50 42-44 0 110c0 17-13 31-30 31l-317 0c-16 0-30-14-30-31l0-231-12 0 0-53 400 0 0 53-11 0z m-289 143l154 0 0-17-154 0z"/>
<glyph unicode="&#100;" d="M322 486l-124 0c-28 0-51-23-51-51l0-125c0-27 23-50 51-50l124 0c28 0 51 23 51 50l0 125c0 28-23 51-51 51z m17-176c0-9-7-16-17-16l-124 0c-9 0-17 7-17 16l0 125c0 9 8 17 17 17l124 0c10 0 17-8 17-17z m-164-58l-124 0c-28 0-51-23-51-50l0-125c0-28 23-51 51-51l124 0c28 0 51 23 51 51l0 125c0 27-23 50-51 50z m17-175c0-9-7-17-17-17l-124 0c-9 0-17 8-17 17l0 125c0 9 8 16 17 16l124 0c10 0 17-7 17-16l0-125z m269 175l-124 0c-28 0-51-23-51-50l0-125c0-28 23-51 51-51l124 0c28 0 51 23 51 51l0 125c0 27-23 50-51 50z m17-175c0-9-8-17-17-17l-124 0c-10 0-17 8-17 17l0 125c0 9 7 16 17 16l124 0c9 0 17-7 17-16l0-125z m-203 353c0-1 1-2 1-4 0-2-1-4-1-5l1-3c2-6 3-11 5-15 2-5 4-11 6-17 4-14 9-26 14-35 5-10 10-17 14-21 2-3 4-4 5-5 0-1 1-2 1-4 0-2-1-4-3-5-1-2-3-3-5-3-7 0-15 11-24 31-4 8-6 12-7 12-2 0-8 0-16-2-8-1-15-3-22-5-4-1-6-2-7-2-1 0-3 1-4 2 0 0-1 0-1 0-1 0-4-3-7-10-7-11-10-17-12-19-2-2-3-3-5-3-2 0-3 0-5 2-2 2-3 3-3 5 0 2 1 4 2 7 2 2 6 8 12 16 10 15 18 30 25 43 11 21 18 33 21 37 3 4 6 5 7 5 4 0 6-1 8-2z m5-61c-2 4-5 11-8 22-4 12-7 19-8 21-2-6-7-14-13-25l-14-26c2 0 4 1 9 2 4 0 7 0 9 1 14 3 22 4 25 5z m-141-220c0-1 0-1 2-2 6-1 11-5 16-10 5-5 7-11 7-18 0-11-7-22-21-33-13-12-28-17-43-17-4 0-8 0-10 1-2 2-4 3-4 4 0 7 5 11 15 11 2 0 4 0 7 0 3 0 6 1 10 2 4 2 8 4 12 6 3 3 7 5 9 8 3 2 5 5 7 8 1 3 2 6 2 9 0 5-2 9-6 13-5 4-10 6-17 6-1 0-4-1-8-3-5-2-7-3-9-3-4 0-7 1-8 2-1 1-2 3-2 6 0 2 5 5 15 9 8 3 16 8 23 15 8 7 11 13 11 18 0 4-1 7-4 9-3 2-7 3-12 3-8 0-17-1-25-3-8-2-13-4-14-6-1-2-3-16-7-41-4-26-5-41-5-45 0-4 0-8 0-11 0-4-1-6-2-9-1-2-4-4-7-4-3 0-6 2-7 4-2 2-3 5-3 9 0 1 1 3 1 5 3 12 6 27 8 46 3 19 4 30 4 33 0 3 0 4-1 6 0 1-2 1-4 1-1 0-2 0-3 0-1 0-2 1-2 2-1 1-2 2-2 4 0 5 8 10 24 15 16 4 33 7 49 7 9 0 16-2 21-7 6-5 8-10 8-16 0-5-2-10-7-16-4-6-10-12-18-18z m289-41c3 0 4-2 4-4 0-3-3-7-9-12-6-5-13-9-21-12-8-3-15-4-22-4-9 0-18 3-26 9-7 7-11 16-11 28 0 21 9 43 28 63 19 21 37 31 54 31 6 0 12-2 16-6 3-4 5-9 5-14 0-5 0-9 0-12-1-2-3-5-6-7-2-2-5-3-6-3-2 0-3 1-4 2-1 1-1 2-1 4 0 1 0 4 1 8 1 4 2 7 2 9 0 5-3 8-7 8-8 0-17-4-28-13-11-8-20-19-28-32-7-13-11-26-11-37 0-7 2-13 6-18 5-5 11-7 19-7 5 0 10 1 17 3 7 3 13 6 19 10 5 4 8 6 9 6z"/>
<glyph unicode="&#101;" d="M163 506c-6 8-14 8-18-1 0 0-22-13-19-18 3-6 10-16 15-24l31-41c6-8 17-9 24-2l3 3c8 6 9 18 3 26z m204-1c-4 9-12 9-18 1l-39-57c-6-8-4-20 3-26l3-3c7-7 18-6 24 2l31 41c5 8 12 18 15 24 3 5-19 18-19 18z m-144-166c4-8 16-15 25-15l14 0c9 0 21 7 25 15l21 41c5 9 3 22-4 28l-6 6c-7 7-21 12-30 12l-22 0c-10 0-24-5-30-12l-8-8c-7-7-9-20-4-28z m27-31c-9 0-19-8-21-18l-67-200c-2-9 1-23 8-30l74-54c7-8 17-8 24-1l76 53c6 8 10 21 8 31l-68 201c-2 10-11 18-21 18l-13 0z"/>
<glyph unicode="&#102;" d="M179 296c0-21-17-37-37-37-21 0-38 16-38 37 0 21 17 37 38 37 20 0 37-16 37-37z m-96-103l0-51 117 0 0 51c0 26-21 48-48 48l-21 0c-26 0-48-22-48-48z m183 80l163 0 0-32-163 0z m0-73l163 0 0-32-163 0z m-41 238l51 0 0-86-51 0z m239-22l-175 0 0-33 186 0 0-276-438 0 0 276 175 0 0 33-164 0c-26 0-48-22-48-48l0-245c0-27 22-49 48-49l416 0c26 0 48 22 48 49l0 245c0 26-22 48-48 48z"/>
<glyph unicode="&#103;" d="M16 439l107 0c9 0 16 6 16 14 0 8-7 14-16 14l-107 0c-9 0-16-6-16-14 0-8 7-14 16-14z m0-99l107 0c9 0 16 7 16 14 0 8-7 15-16 15l-107 0c-9 0-16-7-16-15 0-7 7-14 16-14z m0-98l107 0c9 0 16 6 16 14 0 8-7 14-16 14l-107 0c-9 0-16-6-16-14 0-8 7-14 16-14z m0-99l107 0c9 0 16 7 16 14 0 8-7 15-16 15l-107 0c-9 0-16-7-16-15 0-7 7-14 16-14z m54 369l0-28 53 0c20 0 36-14 36-31 0-17-16-31-36-31l-53 0 0-36 53 0c20 0 36-14 36-31 0-18-16-32-36-32l-53 0 0-36 53 0c20 0 36-14 36-31 0-17-16-31-36-31l-53 0 0-36 53 0c20 0 36-14 36-31 0-18-16-32-36-32l-53 0 0-36 53 0c20 0 36-14 36-31 0-17-16-31-36-31l-53 0 0-28 442 0 0 512z m69-453c0 8-7 14-16 14l-107 0c-9 0-16-6-16-14 0-8 7-14 16-14l107 0c9 0 16 6 16 14z"/>
<glyph unicode="&#104;" d="M309 398c0 12-10 22-23 22l-264 0c-12 0-22-10-22-22 0-12 10-22 22-22l17 0 0-295c0-12 10-22 22-22 13 0 23 10 23 22l0 45 132 0 0-45c0-12 10-22 22-22 12 0 23 10 23 22l0 295 25 0c13 0 23 10 23 22z m-93-228l-132 0 0 84 132 0z m278 283c-12 2-24-6-26-18l-32-150-135 0 0-190c0-12 10-22 23-22 12 0 22 10 22 22l0 31 87 0 0-31c0-12 10-22 22-22 13 0 23 10 23 22l0 172 34 159c2 12-6 24-18 27z m-61-283l-87 0 0 71 87 0z"/>
<glyph unicode="&#105;" d="M489 393l-193 0c-13 0-23-10-23-23 0-12 10-23 23-23l67 0c-8-39-31-61-49-71l-145 0c-26 0-33 9-34 11l-72 203c-6 17-24 26-41 20-17-6-26-24-20-41l71-202c5-16 21-38 53-50l-78-186c-4-11 1-24 13-29 3-1 6-2 9-2 8 0 17 5 21 14l20 49 267 0 20-49c4-9 12-14 21-14 3 0 6 1 9 2 11 5 17 18 12 29l-22 53c0 1 0 1 0 1 0 7-3 13-7 17l-45 109 22 0c18 0 33 14 33 32 0 18-15 33-33 33l-8 0c13 18 24 42 29 71l80 0c13 0 23 11 23 23 0 13-10 23-23 23z m-130-285l-229 0 42 103 144 0z"/>
<glyph unicode="&#106;" d="M512 447c0 1-1 2-1 2-2 3-6 4-9 2-1 0-7-4-16-10-27-1-39 4-44 9-2 1-3 2-3 3l4 3c3 2 4 6 3 9-2 3-6 4-10 3l-136-81c-2-2-11-9-11-18 0 0-1 0-1 0l0-247c0 0 14-46 74-14 61 32 150 90 150 90l0 249z m-152-82c-5-4-24-7-53 2-4 1-5 2-5 2 0 1 3 5 5 7l126 74c1-2 2-3 4-5 8-7 20-10 37-11-39-24-108-65-114-69z m129-109l-89-58 0 72 89 54z m-228-154l16 0c-4 5-6 10-7 14l-1 3 0 41-226 0 0 245 249 0 73 43-326 0c-21 0-39-18-39-39l0-268c0-21 18-39 39-39l125 0 0-26-84 0 0-33 265 0 0 33-84 0z"/>
<glyph unicode="&#107;" d="M256 494l151-120 9 11-160 127-160-127 9-11z m108-200l0 59 19 15-127 100-127-100 19-15 0-59-122 0 0-207 460 0 0 207z m-284-177l-32 0 0 63 32 0z m0 86l-32 0 0 64 32 0z m64-86l-32 0 0 63 32 0z m0 86l-32 0 0 64 32 0z m96 203l32 0 0-115-32 0z m0-139l32 0 0-64-32 0z m-64 88l32 0 0-64-32 0z m0-88l32 0 0-64-32 0z m160-166l-160 0 0 79 160 0 0-79z m0 102l-32 0 0 64 32 0z m0 88l-32 0 0 64 32 0z m64-174l-32 0 0 63 32 0z m0 86l-32 0 0 64 32 0z m64-86l-32 0 0 63 32 0z m0 86l-32 0 0 64 32 0z m-444-126l472 0 0-34-472 0z m-20-43l512 0 0-34-512 0z"/>
<glyph unicode="&#108;" d="M500 392c-23 32-74 45-136 37-27 51-65 83-108 83-41 0-77-28-103-75-58 9-105-1-129-30-29-35-18-89 24-144-46-53-61-106-36-143 23-32 74-45 136-37 27-51 65-83 108-83 41 0 77 28 103 75 58-9 105 1 129 30 29 35 18 89-24 144 46 53 61 106 36 143z m-26-15c17-25 5-64-28-104-14 16-31 31-49 47-4 30-12 58-21 83 46 4 82-4 98-26z m-73-100c9-9 17-18 25-26-8-8-16-16-26-24 1 10 1 19 1 29 0 7 0 14 0 21z m-40 71c-7 4-13 8-19 13-15 9-30 18-45 26 17 5 33 9 48 12 6-16 11-33 16-51z m-105 137c29 0 56-23 77-61-23-4-47-11-71-20-27 12-53 21-79 27 20 33 46 54 73 54z m-86-79c18-4 36-10 55-17-15-7-31-15-46-23-9-5-18-11-27-16 5 20 11 39 18 56z m-131-271c-18 25-6 64 27 104 14-16 31-31 49-47 4-30 12-58 21-83-46-4-82 4-97 26z m72 100c-9 9-17 18-25 26 8 8 16 16 26 24-1-10-1-19-1-29 0-7 0-14 0-21z m5 90c-18-13-34-27-48-40-30 42-39 82-19 106 16 19 49 26 91 21-11-26-19-55-24-87z m35-161c7-4 13-8 19-13 15-9 30-18 45-26-17-5-33-9-48-12-6 16-11 33-16 51z m105-137c-29 0-56 23-77 61 23 4 47 11 71 20 27-12 53-21 79-27-20-33-46-54-73-54z m86 79c-18 4-36 10-55 17 15 7 31 15 46 23 9 5 18 11 27 16-5-20-11-39-18-56z m25 95c-15-11-32-22-50-31-22-13-44-23-66-32-21 10-42 22-63 36-15 10-30 21-44 32-2 16-3 33-3 50 0 19 2 37 4 55 15 11 32 22 50 31 22 13 44 23 66 32 21-10 42-22 63-36 15-10 30-21 44-32 2-16 3-33 3-50 0-19-2-37-4-55z m96-80c-16-19-49-26-91-21 11 26 19 55 24 87 18 13 34 27 48 40 30-42 39-82 19-106z m-156 135c0 25-23 46-51 46-28 0-51-21-51-46 0-25 23-46 51-46 28 0 51 21 51 46z"/>
<glyph unicode="&#109;" d="M511 282c1 2 1 3 1 5 1 10-5 21-16 28l-264 183c-13 9-32 14-51 14-11 0-21-2-29-5l-127-51c-13-5-21-14-24-25 0-1 0-2 0-2l-1 0 0-160c0 0 0-11 4-23 4-10 20-26 20-26l207-212c0 0 28-18 77 0l164 75c0 0 39 14 40 49l0 150z m-80-193c-31-23-73-21-93 5-19 25-10 64 22 86 31 23 73 21 93-4 19-26 10-64-22-87z m54 183l-186-78-1 0c-6-4-14-5-22-5 0 0 0 0 0 0-14 0-28 4-36 13l-217 208c-6 6-9 12-7 19 1 6 6 11 14 14l127 51c7 3 15 4 24 4 16 0 32-4 43-11l263-183c7-5 11-11 11-17-1-5-5-11-13-15z m-409 168l245-218 96 42-271 198z m159-68c17 0 32-10 32-21 0-12-15-22-32-22-18 0-32 10-32 22 0 11 14 21 32 21z"/>
<glyph unicode="&#110;" d="M293 215c-9 6-22 4-30-5l-32-36-4 4 40 46c8 9 7 22-2 29-8 6-22 5-30-5l-37-43-4 4 41 48c8 9 7 22-1 29-9 6-23 5-30-5l-39-45-5 4c0 1 1 1 1 1l98 114c8 9 7 22-1 28-9 7-23 5-30-4l-97-112-3 2 20 53c4 11-1 23-12 27-11 3-23-2-27-13l-47-118 0 0c0 0 0 0 0 0l-8-20c-1-3-1-6-1-9-8-36 0-55 0-55l82-63c66 10 108 55 108 55l51 60c8 9 8 22-1 29z m-189 140l0 123 363 0 0-217-189 0c8-7 11-18 9-28 5-1 10-3 14-6l180 0c15 0 26 11 26 25l0 236c0 13-11 24-26 24l-391 0c-15 0-26-11-26-24l0-224 30 77c2 5 6 10 10 14z m208-141c2-4 3-8 3-12 1-9-2-18-9-25l-51-60-1 0c-2-3-5-6-10-10l268 0 0 107z m141-92c-7 0-12 6-12 12 0 6 5 11 12 11 7 0 12-5 12-11 0-6-5-12-12-12z m0 33c-12 0-21 9-21 20 0 11 9 20 21 20 12 0 21-9 21-20 0-11-9-20-21-20z m-453-75l102-80 44 51-105 79z m104-33c5 0 9-3 9-8 0-5-4-9-9-9-6 0-10 4-10 9 0 5 4 8 10 8z"/>
<glyph unicode="&#111;" d="M111 50l296 0 0-50-296 0z m-6 121l79-55 37-53 145 0c0 0 0 0 3 14 47 179-4 264-65 304l8 17c2 4 7 5 11 3l5-2c4-2 9 0 11 4l5 10c2 5 7 6 11 4l0 0c4-2 9 0 11 4l11 24c2 4 0 8-4 10l-121 56c-4 2-9 0-11-4l-10-23c-2-4-1-9 4-11l0 0c4-2 6-7 4-11l-5-10c-2-4 0-9 4-11l6-3c4-2 5-7 4-11l-9-18c-36 9-64 8-64 8l-39-76 18-10-13-19c-8-11-7-25 2-31 9-7 23-3 30 9l17 23 38-19-5-31c-2-14 5-26 15-28 11-2 22 8 24 21l3 19 20-10 16 22c80-91-51-153-51-153l27 37-172 0z"/>
<glyph unicode="&#112;" d="M95 240l0-164c179 48 317 0 317 0l0 164-157-81z m417-144l-41 68c2 3 3 6 3 10 0 9-6 16-14 17l-23 89-174 68 205-61 42 21-255 128-255-128 255-128 160 80-117 61 128-51 21-82c-5-3-8-8-8-14 0-7 5-14 11-16l-4-80 14 0 2 51 13-53 13 4-13 52 26-43z"/>
<glyph unicode="&#113;" d="M464 381l-31-5 51-221c-90 18-207-37-207-37l-21-10-21 10c0 0-117 55-207 37l51 221-31 5-48-246 256-47 256 47z m-214 10c-54 43-146 32-146 32l-56-251c101 13 181-35 202-50l0 269z m158 32c0 0-92 11-146-32l0-269c21 15 101 63 202 50z"/>
<glyph unicode="&#114;" d="M505 129l-125 185-1 4 0 110c0 9 8 17 16 17 9 0 16 8 16 17l0 29c0 9-7 17-17 17l-122 0c-9 0-17-8-17-17l0-29c0-9 7-17 16-17 9 0 16-8 16-17l0-110 0-4-42-62c29-28 47-67 47-108 0-22-5-42-13-60l197 0c32 0 45 20 29 45z m-230 138l28 41 1 27 0 93c0 18-14 33-32 34l0 29 122 0c0 0 0-29 0-29-17-1-32-16-32-34l0-93 1-28 28-40-116 0z m-96 10l0 103c0 8 6 14 14 14 8 0 14 7 14 15l0 25c0 8-7 14-15 14l-105 0c-8 0-15-6-15-14l0-25c0-8 6-15 14-15 7 0 13-6 13-14l0-103c-57-17-99-70-99-133 0-77 62-140 139-140 77 0 140 63 140 140 0 63-42 116-100 133z m-159-108c9 43 41 79 84 92l12 3 0 116c0 16-12 29-27 31l0 20 101 0 0-20c-16-2-28-15-28-31l0-116 12-3c43-13 76-49 85-92l-239 0z"/>
<glyph unicode="&#115;" d="M351 201l2 40-39 10-21 33-37-14-37 14-21-33-39-10 2-40-24-30 24-31-2-39 39-11 21-33 37 14 37-14 21 33 39 11-2 39 24 31z m-64-47l11-49-42 26-42-26 11 49-38 32 50 4 19 46 19-46 50-4z m-31 187c-94 0-171-76-171-170 0-95 77-171 171-171 94 0 171 76 171 171 0 94-77 170-171 170z m117-255l-46-13-26-40-45 17-45-17-26 40-46 13 2 47-30 38 30 37-2 48 46 12 26 40 45-17 45 17 26-40 46-12-2-48 30-37-30-38z m-75 272l-83 154-102 0 83-154z m101 154l-102 0-33-60 55-88z"/>
<glyph unicode="&#116;" d="M493 412l0 20-32 0 0 32c0 23-92 42-205 42-113 0-205-19-205-42l0-32-32 0 0-20c-11-5-19-29-19-59 0-33 10-60 22-60 13 0 23 27 23 60 0 30-8 54-19 59l0 12 25 0 0-346 47 0 0-61c0-6 5-11 11-11l37 0c6 0 11 5 11 11l0 61 198 0 0-61c0-6 5-11 11-11l37 0c6 0 11 5 11 11l0 61 47 0 0 346 25 0 0-12c-11-5-19-29-19-59 0-33 10-60 23-60 12 0 22 27 22 60 0 30-8 54-19 59z m-312 60l150 0 0-13-150 0z m-65-335c-17 0-31 14-31 30 0 17 14 31 31 31 16 0 30-14 30-31 0-16-14-30-30-30z m110 2l-20 0 0 60 20 0z m19 153l-169 0 0 134 169 0z m21-153l-20 0 0 60 20 0z m40 0l-20 0 0 60 20 0z m90-2c-16 0-30 14-30 30 0 17 14 31 30 31 17 0 31-14 31-31 0-16-14-30-31-30z m40 155l-169 0 0 134 169 0z"/>
<glyph unicode="&#117;" d="M181 385l158 94 0 6 0-1c0 1 0 2-1 3-2 4-8 5-12 3-1-1-9-6-21-13-33-2-49 5-56 11-2 1-3 3-4 5l6 3c4 2 5 8 3 12-3 4-8 5-12 3l-176-105c-3-1-15-11-15-22 0 0 0 0 0 0l0-319c0 0 17-59 96-18 4 2 8 5 13 7l0 303 8 16c5 6 10 10 12 11z m-37-7c-8-5-32-9-69 2-5 2-7 4-7 4 0 1 4 6 7 8l162 96c2-2 3-4 6-6 10-9 26-14 47-14-51-31-138-85-146-90z m317 74c-1 1-1 2-1 2-3 4-8 6-12 3-2-1-9-5-21-13-34-2-50 5-57 11-2 2-3 3-4 5l6 4c4 2 6 7 3 11-2 4-8 6-12 3l-175-104c-3-2-15-11-15-23 0 0 0 0 0 0l0-319c0 0 17-59 95-17 78 41 193 116 193 116l0 321z m-196-107c-7-5-31-8-68 3-6 2-7 3-7 3 0 2 4 6 7 8l162 97c1-2 3-5 5-7 10-9 26-13 48-14-51-31-139-84-147-90z m166-140l-114-74 0 92 114 70z"/>
<glyph unicode="&#118;" d="M473 441c-18 8-38 7-58-2 11 29 19 49 19 49l12 0 0 24-380 0 0-24 12 0c0 0 8-20 19-49-20 9-40 10-58 2-42-20-52-87-21-151 31-64 88-99 130-79 12 6 21 15 27 27 24-23 52-37 66-43 0 0-41-13-56-56l-22-83c0 0-16-30-28-32l-11 0 0-24 264 0 0 24-11 0c-12 2-28 32-28 32l-22 83c-15 43-56 56-56 56 14 6 42 20 66 43 6-12 15-21 27-27 42-20 99 15 130 79 31 64 21 131-21 151z m-338-202c-26-13-67 17-89 64-23 47-20 98 6 110 17 8 41-2 62-23 7-24 14-49 17-72 3-21 11-40 22-55-3-11-9-20-18-24z m172-90l0-79-102 0 0 79z m159 154c-22-47-63-77-89-64-9 4-15 13-18 24 11 15 19 34 22 55 3 23 10 48 17 72 21 21 45 31 62 23 26-12 29-63 6-110z"/>
<glyph unicode="&#119;" d="M409 0l71 0-66 180 50 0 0 65-277 0 0 1c-53 0-77 13-87 24-3 4-5 7-7 10l133 0c13 0 24 10 24 22 0 13-11 23-24 23l-170 0c-13 0-24-10-24-23 0-12 11-22 24-22l0 0c2-9 6-21 17-33 15-17 39-28 70-33l0-34 50 0-65-180 70 0 16 45 179 0z m-185 73l39 107 81 0 39-107z m8 333c0 28 23 51 52 51l40 0c28 0 51-23 51-51l0-141 55 0 0 141c0 58-48 106-106 106l-40 0c-59 0-107-48-107-106l0-73 55 0z"/>
<glyph unicode="&#120;" d="M486 471l-460 0c-14 0-26-12-26-26l0-378c0-15 12-26 26-26l460 0c14 0 26 12 26 26l0 378c0 14-12 26-26 26z m-25-380l-410 0 0 330 410 0 0-330z m-61 305l12 0 0-27-12 0z m15-15l0-14-18 0 0 14-95 0 0-145 121 0 0 145z m-19-122l-66 0 0 10 66 0z m0 29l-66 0 0 10 66 0z m0 30l-66 0 0 9 66 0z m0 29l-66 0 0 10 66 0z m-146-69l12 0 0-27-12 0z m15-17l0-13-18 0 0 13-81 0 0-145 122 0 0 145z m-5-122l-66 0 0 9 66 0z m0 29l-66 0 0 10 66 0z m0 29l-66 0 0 10 66 0z m0 30l-66 0 0 9 66 0z m-127 184l12 0 0-27-12 0z m15-15l0-15-17 0 0 15-42 0 0-129 108 0 0 129z m24-108l-59 0 0 8 59 0z m0 26l-59 0 0 8 59 0z m0 26l-59 0 0 8 59 0z m0 26l-59 0 0 9 59 0z"/>
<glyph unicode="&#121;" d="M243 39l196 0 15 189-226 0z m118 284c-1 10-9 19-20 19-10 0-19-9-20-19-46-8-83-41-96-85l232 0c-13 44-50 77-96 85z m-131-298c-12 7-26 14-38 21-16 8-23 24-27 40-5 16-11 33-13 50-1 11 2 21-2 31-1 3-2 6-3 8 12 1 22 8 22 16 0 9-11 16-25 16l-61 0c-14 0-25-7-25-16 0-9 11-16 24-16-4-8-6-16-10-23-4-8-10-13-13-21-4-16-4-33-4-49 0-16 0-32 4-48 4-12 10-22 16-33 4 0 5 3 7 5 6-2 8-6 15-6 6 0 10 4 15 4 6 0 9-5 15-4 7 1 9 5 16 4 4-1 11-5 16-3 3 2 4 8 8 8 3 1 4-1 5-1 7-1 9-1 15 2 6 1 6-1 12-1 9 0 18 4 26 6 3 0 9-2 11 1 3 4-4 7-6 9z m-137 191l40 0c14 0 25 7 25 17 0 9-11 17-25 17l-4 0c0 1 0 2 0 3l0 234c0 14-7 25-16 25-9 0-16-11-16-25l0-234c0-1 0-2 0-3l-4 0c-13 0-24-8-24-17 0-10 11-17 24-17z"/>
<glyph unicode="&#122;" d="M145 477l-36 35-91-22 64-61c0 0 28 46 63 48z m298-266c-117 132-263 259-263 259 0 0-87 0-83-75 0 0 198-216 221-326 22-109 109-56 115-56 6 0 127 66 10 198z m-292 183l36 23c44-30 260-271 260-271l-71-42c-8 33-225 290-225 290z m320-305l-1-2-113-66c0 0-17 15-19 35l125 74c0 0 15-16 9-37 0-2-1-3-1-4z"/>
<glyph unicode="&#65;" d="M165 111c25-14 53-22 84-22 66 0 124 38 151 94-31-17-67-32-104-44-45-15-90-24-131-28z m-44 51c48 0 103 10 158 28 56 18 103 42 137 66 0 0 0 0 0 0 0 93-75 167-167 167-93 0-168-74-168-167 0-35 11-67 29-94 3 0 7 0 11 0z m389 177c-1 2-2 3-2 5-1 1-1 3-2 5-12 37-69 54-145 50 9-7 17-16 25-24 54 0 97-11 117-33-6-55-97-125-219-165-123-40-237-37-275 4 3 26 24 55 59 82 0 12 2 24 4 35-52-38-81-81-70-114 1-2 2-3 2-5 1-2 1-3 2-5 18-58 147-67 286-22 139 46 237 129 218 187z"/>
<glyph unicode="&#66;" d="M321 67c22 71 8 142-32 177 53 3 109 50 135 119 17 1 31 11 36 25 8 21-7 45-32 54l-191 67c-25 9-51-1-59-22-5-15 1-31 13-42-22-71-8-142 32-177-53-3-109-50-135-119-17-1-31-11-36-25-8-21 7-45 32-54l191-67c25-9 51 1 59 22 5 15-1 31-13 42z m-113 314c0 18 3 37 9 55l5 17-12 12c-5 4-7 9-6 13 2 5 13 9 24 5l191-67c11-4 17-13 15-19-1-3-6-6-12-7l-17-1-3-8z"/>
<glyph unicode="&#67;" d="M457 512l-402 0c-30 0-55-25-55-55l0-402c0-30 25-55 55-55l402 0c30 0 55 25 55 55l0 402c0 30-25 55-55 55z m-113-67l43 0 0-46-43 0z m-54 0l42 0 0-46-42 0z m-55 0l42 0 0-46-42 0z m0-58l42 0 0-43-42 0z m-55 58l42 0 0-46-42 0z m0-58l42 0 0-43-42 0z m-55 58l43 0 0-46-43 0z m0-58l43 0 0-43-43 0z m0-55l43 0 0-42-43 0z m-58 113l46 0 0-46-46 0z m0-58l46 0 0-43-46 0z m0-55l46 0 0-42-46 0z m0-55l46 0 0-42-46 0z m46-210l-46 0 0 46 46 0z m55 0l-43 0 0 46 43 0z m54 0l-42 0 0 46 42 0z m0 58l-42 0 0 43 42 0z m55-58l-42 0 0 46 42 0z m55 0l-42 0 0 46 42 0z m55 0l-43 0 0 46 43 0z m0 58l-43 0 0 43 43 0z m58-58l-46 0 0 46 46 0z m0 58l-46 0 0 43 46 0z m0 55l-46 0 0 42 46 0z m0 55l-46 0 0 42 46 0z m0 55l-17 0 6-10-47 13 0-3-17 0-5-13 22 0 0-42-38 0-4-13 42 0 0-42-43 0 0 42-12-33 0-9-3 0-5-12 8 0 0-43-42 0 0 29-13 12 0-41-42 0 0 43 41 0-13 12-28 0 0 28-13 11 0-39-42 0 0 37-12-12 0-25-26 0-12-12 38 0 0-43-43 0 0 37-12-12 0-25-46 0 0 43 24 0-12 12-12 0 0 42 39 0 19 19 0 36 37 0 18 18 0 37 42 0 0-35 21-20 34 0 0-33 12-11 1 2 0 42 16 0 4 13-20 0 0 30-13 3 0-33-42 0 0 42 26 0 29 16 0 39 42 0 0-15 12 7 0 8 14 0 11 6 4-6 14 0 0-25 17-30 41 0 0-42z m0 54l-46 0 0 43 46 0z m0 55l-46 0 0 46 46 0z m-247-164l-12-13 33 0-12 13z m212 63l-45 80-80-45 48-14-40-106-91 89-115-114 23-24 92 91 105-102 59 157z"/>
<glyph unicode="&#68;" d="M361 407c0-57-47-104-105-104-58 0-104 47-104 104 0 58 46 105 104 105 58 0 105-47 105-105z m-321-243l25 0c7 0 12 5 12 11 0 7-5 11-12 11l-25 0c-7 0-12-5-12-11 0-6 5-11 12-11z m24-4l-26 0c-7 0-13-5-13-12 0-6 6-11 13-11l26 0c7 0 13 5 13 11 0 7-6 12-13 12z m1-27l-25 0c-7 0-12-5-12-12 0-6 5-11 12-11l25 0c7 0 12 5 12 11 0 7-5 12-12 12z m1-28l-23 0c-5 0-10-4-10-10 0-5 5-10 10-10l23 0c6 0 11 5 11 10 0 6-5 10-11 10z m406 59l-25 0c-7 0-12 5-12 11 0 7 5 11 12 11l25 0c7 0 12-5 12-11 0-6-5-11-12-11z m-24-4l26 0c7 0 13-5 13-12 0-6-6-11-13-11l-26 0c-7 0-13 5-13 11 0 7 6 12 13 12z m-1-27l25 0c7 0 12-5 12-12 0-6-5-11-12-11l-25 0c-7 0-12 5-12 11 0 7 5 12 12 12z m-1-57c-11 0-19 9-19 19 0 5 2 10 5 13-3 4-5 8-5 13 0 6 2 10 5 14-3 3-5 8-5 13 0 6 2 10 5 14-3 4-5 8-5 13 0 11 9 20 20 20l19 0c0 26 0 52 0 78-64 40-146 40-210 0-64 40-146 40-210 0 0-26 0-52 0-78l19 0c11 0 20-9 20-20 0-5-2-9-5-13 3-4 5-8 5-14 0-5-2-10-5-13 3-4 5-8 5-14 0-5-2-9-5-13 3-3 5-8 5-13 0-10-8-19-19-19l-20 0c0-25 0-51 0-76 64 39 146 39 210 0 64 39 146 39 210 0 0 25 0 51 0 76z m0 29l23 0c5 0 10-4 10-10 0-5-5-10-10-10l-23 0c-6 0-11 5-11 10 0 6 5 10 11 10z"/>
<glyph unicode="&#69;" d="M279 292l-17 10-8 6-18 11-49 33c-39-88-137-104-137-104 50-138 4-242 4-242l115 174c-5 7-6 16-1 23 6 8 17 11 26 5 8-6 11-17 5-26-5-7-13-10-21-7l-115-175c0 0 78 83 224 91 0 0-24 97 43 167z m-56 220l-44-134 177-117 106 93z"/>
<glyph unicode="&#70;" d="M150 307c-8 0-14-7-14-15l0-40c0-9 6-16 14-16 7 0 13 7 13 16l0 40c0 8-6 15-13 15z m228 0c-8 0-14-7-14-15l0-40c0-9 6-16 14-16 7 0 14 7 14 16l0 40c0 8-7 15-14 15z m-189 178c0 2 2 4 4 4l141 0c2 0 4-2 4-4l0-41 23 0 0 41c0 15-12 27-27 27l-141 0c-15 0-27-12-27-27l0-41 23 0 0 41z m282-103l0 21c0 18-15 32-33 32l-349 0c-18 0-33-14-33-32l0-19c-13-35-80-220-35-263 7-7 16-10 26-10 5 0 11 1 18 3l0 0c0-17 14-31 31-31l239 0c15-10 34-25 59-48 25-23 46-35 63-35 7 0 12 2 18 5 67 38 8 323-4 377z m-324-256l0 66 233 0 0-66-233 0z m320-108c-16-9-43 10-63 29-15 14-29 26-42 36l69 0c17 0 31 14 31 31l0 158-55 0 0-20c0-18-13-32-29-32-17 0-30 14-30 32l0 20-169 0 0-20c0-18-13-32-29-32-17 0-30 14-30 32l0 20-55 0 0-142c-15-5-26-5-33 2-27 26 0 133 24 205l0-49 64 0 0 4c0 17 13 31 30 31 16 0 29-14 29-31l0-4 169 0 0 4c0 17 13 31 30 31 16 0 29-14 29-31l0-4 64 0 0 12c19-110 35-260-4-282z"/>
<glyph unicode="&#71;" d="M82 229c-27 0-49-22-49-48 0-27 22-49 49-49 27 0 48 22 48 49 0 26-21 48-48 48z m0-79c-17 0-30 14-30 31 0 16 13 30 30 30 17 0 30-14 30-30 0-17-13-31-30-31z m308 79c-27 0-48-22-48-48 0-27 21-49 48-49 27 0 49 22 49 49 0 26-22 48-49 48z m0-79c-17 0-30 14-30 31 0 16 13 30 30 30 17 0 31-14 31-30 0-17-14-31-31-31z m86 230l-342 0 0-32 12 0-14-61c0 0-18-7-67-7-50 0-53-42-53-42l0-39-12 0 0-18 23 0c0 32 26 59 59 59 33 0 59-27 59-59l190 0c0 32 26 59 59 59 33 0 59-27 59-59l63 0c0 0 0 118 0 156 0 38-36 43-36 43z m-55-33l66 0 0-59-66 0z m-88 0l65 0 0-59-65 0z m-89 0l65 0 0-59-65 0z m-13-151l-66 0 0 151 66 0z m263 50l-250 0 0 13 250 0z"/>
<glyph unicode="&#72;" d="M294 70l-76 0c-11 0-21-7-21-15 0-8 10-15 21-15l76 0c11 0 21 7 21 15 0 8-10 15-21 15z m-10-41l-56 0c-8 0-15-6-15-13 0-7 7-13 15-13l56 0c8 0 15 6 15 13 0 7-7 13-15 13z m-28 364c-68 0-123-55-123-123 0-48 53-96 53-96 9-8 16-24 16-35l0-38c0-11 9-21 21-21l66 0c12 0 21 10 21 21l0 38c0 11 7 27 16 35 0 0 53 48 53 96 0 68-55 123-123 123z m74-167l-9 6c41 66-23 115-25 117l6 8c1 0 74-56 28-131z m-303 54l86-15 0 30z m458 0l-86-15 0 30z m-229 229l-15-86 30 0z m-162-67l50-71 21 21z m324-324l-71 51 21 20z m0 324l-71-50 21-21z m-324-324l50 71 21-20z"/>
<glyph unicode="&#73;" d="M310 483c-108 0-210-111-202-192 3-9 8-16 17-21 10-5 24-5 36-4 7 1 44 15 52 18 21 10 52 15 71-3 21-21 10-46-8-63-23-20-47-38-48-70-1-25 7-45 27-57 10-7 24-10 38-12 5-1 11-1 17-1 111 0 202 91 202 202 0 112-91 203-202 203z m-101-151c-19 0-34 13-34 29 0 16 15 28 34 28 19 0 35-12 35-28 0-16-16-29-35-29z m203 71c19 0 34-13 34-29 0-15-15-28-34-28-19 0-35 13-35 28 0 16 16 29 35 29z m-116-20c-19 0-34 13-34 29 0 15 15 28 34 28 19 0 35-13 35-28 0-16-16-29-35-29z m76-239c-19 0-34 12-34 28 0 16 15 29 34 29 20 0 35-13 35-29 0-16-15-28-35-28z m69 91c-19 0-34 13-34 28 0 16 15 29 34 29 19 0 35-13 35-29 0-15-16-28-35-28z m-284-38c-10 16-21 33-33 51-54 75-108 128-121 118-13-9 19-78 73-153 12-17 24-33 36-48z m8-13l-43-30c16-20 32-36 44-46l27 19c-6 15-15 35-28 57z m1-89c5-19 20-34 38-42 8-4 16-5 24-9 5-1 9-3 13-6 4-3 6-6 10-9 0 13-5 29-9 41-5 13-11 23-19 34-5 8-11 13-18 18z"/>
<glyph unicode="&#74;" d="M512 512l-435 0c-42 0-77-33-77-73l0-366c0-40 35-73 77-73l358 0c42 0 77 33 77 73l0 352-277 0 0-246-59 105-59-105 0 246-34 0c-24 0-44 14-44 31 0 16 20 30 44 30l429 0z"/>
<glyph unicode="&#75;" d="M318 126c8 10 7 24-2 32-9 7-23 5-31-5l-33-40-5 4 42 51c8 10 7 24-2 32-9 7-23 5-31-5l-39-48-4 5 43 52c8 10 7 25-2 32-9 7-23 5-31-5l-41-50-4 5c0 0 1 1 1 1l102 125c8 10 7 24-2 31-9 7-23 5-31-5l-101-123-3 3 21 57c5 12-1 26-12 30-11 4-24-2-29-14l-48-130c0 0 0 0 0 0l-8-21c-1-4-2-7-1-10-9-40-1-60-1-60l85-70c69 12 113 61 113 61l0 0z m11 137l120 0 0 9c0 75-53 137-120 144z m0 153l-29 0c0 1 0 2 0 3 1 36-7 48-14 51-9 6-29 0-53-16-32-21-61-27-84-16-37 17-44 68-44 70l29 4c1-10 9-39 27-47 14-7 33-2 56 13 36 24 63 29 83 18 30-17 29-63 29-78z m-53-182c2-4 3-8 3-13 7-1 14-3 19-8 8-6 13-16 14-27 0-3 0-5 0-7 5-2 11-4 15-8 8-6 13-16 14-27 0-10-3-20-10-29l-54-65 0 0c-3-5-10-12-23-22 18-10 39-16 61-16 74 0 134 65 134 146l0 76z m-13 29l36 0 0 46c-1-3-3-6-5-8z m-79 25l51 61c8 10 19 16 32 16 8 0 17-3 23-8 4-4 7-7 9-12l0 71c-59-8-107-57-116-121 0-2 1-5 1-7z"/>
<glyph unicode="&#76;" d="M365 364c0 4 0 8 0 12 1 0 2 0 3 0 5-9 9-17 11-20 5-13 5-27 2-41-5-17-16-36-13-55 4 2 9 3 13 5 8 2 18 6 27 7 8 0 17-4 23 4 3 5 1 16-1 21-1 4-3 5-4 9-1 3-1 6-1 9-1 18-5 40-19 52-4 5-8 9-13 13-6 4-13 6-18 10-4 3-6 6-9 9-9 64-55 113-110 113-55 0-101-49-110-113-3-3-5-6-9-9-5-4-12-6-18-10-5-4-9-8-13-13-14-12-18-34-19-52 0-3 0-6-1-9-1-4-3-5-4-9-2-5-4-16-1-21 6-8 15-4 23-4 9-1 19-5 27-7 4-2 9-3 13-5 3 19-8 38-13 55-3 14-3 28 2 41 2 3 6 11 11 20 0-1 0-1 0-1l3 0c0-3 0-7 0-11 0-67 49-121 109-121 60 0 109 54 109 121z m-109-112c-55 0-100 50-100 112 0 4 0 8 0 11l18 0c4 3 8 6 11 9 4 5 8 14 11 20 3 5 6 13 6 19 0-10 0-20 1-30 0-4 0-13 2-18l1 0c4 11 36 73 39 73 3 0-2-44 2-56 2-8 8-11 15-14 1 3 2 7 4 9 4 4 3 0 7-2 3-1 4 2 7 2 4 1 5-2 9-4 8-4 46-6 66-6 1-5 1-9 1-13 0-62-45-112-100-112z m-77-27c-78-34-132-113-132-205 0-7 0-13 1-20l200 0 0 192-95-42z m154 0l26-75-95 42 0-192 200 0c1 7 1 13 1 20 0 92-54 171-132 205z"/>
<glyph unicode="&#77;" d="M474 62l0 450-34 0 0-100-88 0c-3 17-18 29-36 29-18 0-32-12-35-29l-96 0c-3 17-18 29-36 29-18 0-32-12-35-29l-42 0 0 100-34 0 0-450-38 0 0-62 512 0 0 62z m-172 371c9 5 19 6 21 1 3-5-2-13-11-18-10-6-19-6-22-1-3 5 3 13 12 18z m-167 0c9 5 18 6 21 1 3-5-2-13-12-18-9-6-18-6-21-1-3 5 2 13 12 18z m-63-31l41 0c2-18 18-33 36-33 19 0 34 14 36 33l95 0c2-18 18-33 36-33 19 0 34 14 36 33l88 0 0-113-105 0c-2 18-17 31-35 31-19 0-34-13-36-31l-8 0c-3 18-18 31-36 31-18 0-33-13-36-31l-8 0c-2 18-17 31-36 31-18 0-33-13-35-31l-33 0z m213-90c9 5 19 5 22 0 2-4-3-13-12-18-9-5-19-5-22 0-2 5 3 13 12 18z m-80 0c10 5 19 5 22 0 3-4-3-13-12-18-9-5-19-5-21 0-3 5 2 13 11 18z m-79 0c9 5 19 5 21 0 3-4-2-13-11-18-10-5-19-5-22 0-3 5 3 13 12 18z m-54-33l33 0c2-17 17-31 35-31 19 0 34 14 36 31l8 0c3-17 18-31 36-31 18 0 33 14 36 31l8 0c2-17 17-31 36-31 18 0 33 14 35 31l105 0 0-112-33 0c-2 17-17 31-35 31-18 0-34-14-36-31l-68 0c-2 17-17 31-35 31-18 0-34-14-36-31l-12 0c-3 17-18 31-36 31-18 0-33-14-35-31l-42 0 0 112z m285-90c9 6 19 6 22 1 2-5-3-13-12-18-9-5-19-6-22-1-2 5 3 13 12 18z m-139 0c9 6 19 6 22 1 2-5-3-13-12-18-9-5-19-6-22-1-2 5 3 13 12 18z m-83 0c9 6 18 6 21 1 3-5-2-13-12-18-9-5-18-6-21-1-3 5 2 13 12 18z m-63-127l0 95 42 0c2-18 17-31 35-31 18 0 33 13 36 31l12 0c2-18 18-31 36-31 18 0 33 13 35 31l68 0c2-18 18-31 36-31 18 0 33 13 35 31l33 0 0-95z"/>
<glyph unicode="&#78;" d="M485 182l-38 80c-5 12-19 18-30 12-11-5-15-19-10-31l24-49-6-2-30 62c-6 12-19 17-30 12-11-5-15-19-10-31l28-58-6-3-31 65c-5 12-19 17-30 12-11-5-15-19-9-31l28-61-6-2c0 1 0 1 0 1l-61 127 35 0 0 11-40 0-7 14c-5 12-19 18-30 13-9-5-14-16-11-27l-104 0 0-11 109 0 68-144-4-2-45 46c-9 10-24 10-33 2-9-9-9-24 0-34l101-103c0 0 0 0 0 0l17-17c2-3 5-5 8-6 34-26 57-27 57-27l103 49c20 70-7 133-7 133z m-423-53l0 331 290 0 0-177c11 7 28 11 49 0l0 193c0 20-16 36-36 36l-316 0c-20 0-36-16-36-36l0-362c0-21 16-37 36-37l208 0-54 52z m49 285l192 0 0-11-192 0z m0-59l192 0 0-11-192 0z"/>
<glyph unicode="&#79;" d="M512 425c-1 3-2 7-3 10-1 4-2 7-3 11-2 3-4 6-5 10-3 3-5 6-7 9-3 3-5 7-8 9-3 3-6 6-9 9l-11 7-11 7c-4 2-9 3-13 5-4 2-9 3-13 4-5 1-9 2-14 3l-14 2c-5 1-10 0-14 1l-15 0c-9 0-18-1-28-2l0 0-3 0-1-3c-1-8-3-17-5-25-3-8-5-17-8-25-3-8-6-16-10-24-4-8-7-17-11-25-4-7-9-15-13-23l-15-23c-2-4-5-7-7-11l-23-29c-2-2-3-3-4-4l-9-11c-3-4-7-7-10-10-7-7-13-14-21-20l-22-20c-7-6-16-12-24-18l-12-8c-4-3-8-6-13-9l-26-16c-9-5-18-10-28-14l-28-14 1-1c0 0-1-1-1-1l-7-3-2-1-1-1 0 0-1 0 0 0 0 0-4-3c-9-6-18-12-24-21-3-4-6-8-8-12-1-2-2-5-2-7l-1-4c0-1 0-2-1-3l0-3 0-1 0 0 0-1 0 0 0-2 1-7c0-2 0-4 0-6l1-7c1-4 2-8 4-12 1-5 2-9 5-13l6-12 9-11c3-4 7-8 10-11 2-2 3-4 5-5l7-5c8-7 17-11 25-16l6 5c-8 5-17 11-24 17l-5 4c-2 2-3 3-5 5-2 4-6 7-8 10l-7 11-6 11c-1 4-2 8-3 12-2 4-2 8-3 12l0 6c-1 2 0 4 0 6l0 6 0 1 0 1 0 0 0 3c0 1 1 3 1 4l1 2c0 2 1 3 2 5 2 3 4 7 7 10 5 6 13 11 21 16l3 2 0 0 1 0 1 1 8 3c0 0 0 0 1 0l0 0 6 2c2 1 4 2 6 2 9 2 19 4 29 4 5 0 10 0 15 0l8-1c2 0 5-1 7-1 5-1 10-2 15-3l7-2 3-1 0 0 1-1 1 0 1-1 4-1-4-5c0 0-28-28-47-55-1-1-2-2-2-3l-2-2-1-1 0 0 0-1-1 0 0-2-2-3c-2-4-3-8-4-12-3-9-4-19 0-29 3-10 10-19 20-26 5-3 10-6 16-9 3-1 5-2 7-3l2-1 1 0 0 0 1-1 1 0 4-1c11-3 24-5 36-5 12 0 24 2 35 6 10 5 19 10 26 16 6 6 11 12 15 18 1 3 3 6 4 9 1 3 2 5 2 8 1 2 2 5 2 6 0 2-1 3-1 4 1 2 1 3 1 3 0 8-1 16 1 25 0 8 1 16 3 24 2 8 3 17 6 25l3 12 5 12c7 18 16 36 26 54l-5-86 34 29 46-11-40 97c28-42 134-21 134-21l-49 26 49 30c-106-15-86 29-86 29-1 4-2 7-4 11 7 6 14 13 20 20 14 13 29 26 44 39 15 13 31 25 47 37l0 0 2 1z m-273-356c0-1 0-3 0-4-1-1-1-2-1-4 0-1 0-2-1-4 0-2-1-4-2-6-2-4-4-8-8-12-4-4-9-7-15-10-6-3-13-5-22-6-8-1-17 0-26 2l-3 1-1 0 0 0c0 0 1 0 1 0l-1 0 0 0-2 1c-3 0-6 1-8 2-3 1-7 3-11 5-7 5-12 10-15 17-3 6-4 14-2 21 0 4 1 7 2 11l1 2 1 2 0 0c0 0 0 0 0 0l0 0 2 3c0 1 1 1 1 1 4 4 11 8 18 9 14 3 28 3 36 1 4-1 7-2 9-3 3-2 5-5 7-7l22 27c1-2 2-4 4-5 4-7 7-14 9-22 1-3 2-7 3-11 1-3 2-8 2-10l0 0c0-1 0-1 0-1z m89 203c-1-1-2-2-3-3-24-29-45-61-60-94l-5-13-5-13c-3-6-4-12-6-18-4 6-9 11-15 16-2 2-4 3-6 5l-6 5c-5 3-10 6-15 9-4 3-10 5-16 8-3 1-5 2-8 3l-7 2-5 2-4 1-9 2c-5 2-12 3-18 3-3 1-6 1-9 2l-9 0c-2 0-4 0-6 0 1 1 3 2 5 4l27 17c4 3 9 6 13 9l12 9c8 7 17 12 24 19l22 21c7 6 14 14 21 21 3 3 6 7 10 11l9 11c4 5 8 10 12 16 15 1 25 0 33-4-61-71-124-130-124-130 23-5 56-19 56-19-1 37 38 88 84 135 7-10 8-24 8-37z m126 120c-17-13-32-25-47-39-5-4-10-8-14-12-5 9-12 15-19 20 53 47 100 82 100 82-19 23-62 40-62 40-12-33-37-73-68-112-17 2-35-3-48-8l10 18c4 8 8 16 12 24 4 8 7 17 11 25 3 8 6 17 9 25 2 9 5 17 7 26 1 7 3 15 4 23 8 0 16 1 24 1l13 0c5-1 9 0 14-1l13-2c4 0 8-2 13-3 4-1 8-2 12-3 4-2 8-3 12-5l11-6 9-7c3-2 6-5 9-8 2-2 5-5 7-8 2-3 4-6 6-9 2-3 4-6 5-9 2-6 4-12 5-18-17-11-33-23-48-34z"/>
<glyph unicode="&#80;" d="M267 466c-61 61-160 61-221 0-61-61-61-160 0-220 61-61 160-61 221 0 60 60 60 159 0 220z m-192-192c-45 45-45 118 0 163 45 45 118 45 163 0 45-45 45-118 0-163-45-45-118-45-163 0z m417-186c-18 18-125 125-193 166l-40-40c41-68 147-176 165-194 23-23 57-27 76-8 19 19 15 53-8 76z m-336 365c-26 0-50-10-69-28-3-4-3-10 0-13 4-4 10-4 13 0 15 14 35 23 56 23 44 0 79-36 79-79 0-20-8-39-21-54-4-3-3-9 0-13 2-1 4-2 7-2 2 0 4 1 6 3 17 18 26 41 26 66 0 53-43 97-97 97z"/>
<glyph unicode="&#81;" d="M497 497c-19 20-51 20-70 0-12-12-62-73-93-123l40-40c50 31 111 81 123 93 20 19 20 51 0 70z m-159-159c-33 34-83 74-163 10-63-50-113-66-133-71l-5 5c-10 10-25 12-32 4-8-7-6-22 4-32l245-245c10-10 25-12 32-4 8 7 6 22-4 32l-5 5c5 20 21 70 71 133 64 80 24 130-10 163 0 0 0 0 0 0z m-40-7l-4-12c-2 0-42 14-86-20-51-41-114-65-117-66l-9 24c1 0 62 24 110 62 56 44 109 25 111 24z m-236-248c0-46 37-83 83-83 24 0 45 10 60 26l-117 118c-16-15-26-37-26-61z"/>
<glyph unicode="&#82;" d="M295 262l0 0-13-7-2 8 16 8 9 0 0-73-10 0z m36-64l0 6 8 8c19 17 27 27 27 38 0 7-3 14-14 14-7 0-12-3-16-6l-3 7c5 4 13 7 21 7 16 0 22-10 22-21 0-13-9-24-25-39l-6-6 0 0 33 0 0-8-47 0z m61 11c2-1 9-4 16-4 12 0 16 8 16 14 0 10-9 14-19 14l-5 0 0 8 5 0c8 0 17 4 17 12 0 6-4 11-13 11-6 0-12-2-15-5l-2 8c4 3 11 5 19 5 14 0 21-8 21-17 0-8-5-14-14-17l0-1c9-1 17-8 17-18 0-12-10-22-27-22-8 0-16 2-19 5z m-297 146l-7-24-11 0 26 76 12 0 26-76-11 0-8 24z m25 7l-7 22c-2 5-3 10-4 14l0 0c-1-4-3-9-4-14l-8-22 23 0z m32 44c4 1 11 1 18 1 10 0 16-1 21-5 4-3 6-8 6-14 0-7-5-13-13-16l0 0c7-2 16-8 16-19 0-7-3-12-7-16-5-4-13-7-26-7-6 0-12 1-15 1z m10-31l9 0c10 0 16 5 16 12 0 9-7 13-16 13-5 0-8-1-9-1z m0-37c2 0 5 0 8 0 10 0 20 4 20 15 0 10-9 14-20 14l-8 0 0-29z m104-5c-4-1-11-3-20-3-21 0-37 13-37 38 0 24 16 40 39 40 10 0 16-2 18-3l-2-8c-4 1-9 3-15 3-18 0-30-12-30-31 0-19 11-31 29-31 6 0 12 1 16 3z m215 157l-450 0c-17 0-31-14-31-31l0-357c0-17 14-31 31-31l31 0 0-33c0-9 7-16 16-16l10 0c9 0 16 7 16 16l0 33 304 0 0-33c0-9 7-16 16-16l10 0c9 0 16 7 16 16l0 33 31 0c17 0 31 14 31 31l0 357c0 17-14 31-31 31z m-383-384l-57 0 0 16 57 0 0-16z m99 0l-57 0 0 16 57 0z m99 0l-57 0 0 16 57 0z m179 47l-438 0 0 296 438 0 0-296z"/>
<glyph unicode="&#83;" d="M271 480l0 32-30 0 0-32-241 0 0-28 512 0 0 28z m-271-381l107 0-68-99 28 0 68 99 242 0 68-99 28 0-68 99 107 0 0 27-512 0z m21 337l0-293 470 0 0 293z m122-149l-1-1c0-1 0-2-1-4-1-3-3-4-5-4l-1 0c-1 0-1-1-1-1l-5-5c-1-1-2-2-3-3l-1-1-2-1c0 0 0 0-1-2 0-1-1-1-1-1l-3-1c0 0-1 0-2-2-1-1-2-3-3-4l-1-1c0-1-1-1-2-2-1 0-2-1-2-1-1-1-1-2-2-2-1 0-1-1-1-1l-1-1c0 0 0-1-1-2-1 0-2-2-4-4-1-2-2-4-3-4 0 0 0 0-1-1 0 0 0-1-1-1 0-1-1-1-2-2 0-2-1-2-1-3 0 0-1-1-1-2-1-2-2-3-3-4 0 0 0 0 0-1 1-2 2-3 3-2 1 0 1 0 1 0 0 0 1 0 2 1 1 0 2 0 2 1 1 0 1 0 2 1l1 0 1 0 5 2 1 1 3 0c0 0 1 0 2 1 0 1 1 1 1 1 0 0 0 0 0 0l2 1 3 1 3 1c1 0 2 1 5 1 1 0 2 1 3 1 0 0 0 0 1 0 0 0 1 0 2 0 0 1 1 1 2 1 4 1 6 0 6-1l3-3c0-2 1-2 1-3l0 0 0-2 0-1c1-1 0-2 0-3-1 0-1 0-2-1l0 0c-1 0-3 1-4 2l-1 0-1 0c-1 0-1-1-2-1 0 0-1 1-3 1l0 0c0 0-1 0-1 0-1-1-1-1-1-1 0 0-1 0-1 0 0 0 0 0-1 0 0 0-1 0-3-1l-10-4-2 0c-1-1-2-1-3-2-1-1-1-1-1-1l-3 0-11-4c0 0 0 0-1 1-1 0-1 0-1 0 0 0 0 0 0-1 0-1-1-2-2-2-2 0-4 0-6 1 0 0 0 0 0 0l-2 0c0 0 0 1-1 1l-1 2-1 2c-1 0-1 2-2 3 0 4 0 7 1 9 1 1 2 3 2 3 1 3 2 6 5 10l3 4c0 0 0 0 0 0 1 0 1 1 3 3 1 1 2 3 3 3 0 1 1 2 2 3l4 4c1 2 3 4 6 7l1 0 1 1 1 1c0 1 1 1 3 2l5 5 2 1c1 1 2 2 3 3 2 1 3 2 4 2l2 1 1 2c1 0 1 1 2 2 1 0 2 1 3 2 0 0 1 1 3 2 1 1 2 3 2 4 0 1-1 2-2 1-1 0-2 1-3 1-1 0-1 0-1 0l-4-1-1 0c-1 0-2 0-2 0-1 0-1 0-2 0-1-1-1-1-2-1l-2 0c-1 0-2-1-4-2l-1-1c0 0 0 0 0 0l-2-1-4-2c0-1-1-1-2-2 0 0-1 0-1-1 0 0-1 0-1-1l-2 1c-1 0-1-1-1-1-1-1-1-1-1-1-2-1-4 1-5 5 0 2 0 4 2 5 1 2 2 3 3 4l6 2c0 0 1 0 2 0l0 0 2 1c0 1 1 1 1 1l2 0 6 2 6 1c3 0 4 0 4 0l2 0c2 0 5-1 8-5 1 0 1-1 3-2 1-1 2-3 3-5 0-1-1-3-1-4z m68-11c-2-1-4-2-5-2l-3 0-3-2-8 0c0 0-1-1-2-1l-1-1c0 0-1 0-1-1 0 0 0-1 0-1-1-1-1-1-1-2 0 0 0-1 0-3l0-1c0 0 0-1 0-3 0-2 0-4 0-5-1-1-1-2-1-4 0 0 0-1-1-1 0-1-1-2-1-2 0-1 0-2-1-2l-1 0c-1 0-1 0-1 0-1 0-2 0-3 1-1 2-2 3-2 4-1 3-1 5 0 7 0 1 0 3 0 4 0 2 1 4 2 7 0 0 0 1 0 1 0 0 0 0 0 0-1 0-1 0-2-1 0 0-1 0-1-1-3 0-5 0-7 0-2-1-4-1-4-1l-1 0-2-1c-1 0-3 0-3 2-1 1-2 2-2 3 0 1 0 2 2 3 2 1 3 2 3 2 1 0 1 0 1 0 1 0 1 0 1 0l1 0c2 0 2 0 2 0l7 1 2 1c0 0 1 0 1 0 1 1 2 1 2 1 1 0 1 1 1 1 0 0 1 1 1 2 0 1 0 2 1 3 1 0 1 1 1 1l0 1c0 0 0 0-1 1 0 0 0 2 1 3l1 3c0 2 1 4 1 5l1 4c0 2 1 3 2 3 1 0 2 0 4 0 2-1 3-2 3-3 0 0 0-1 0-3 0-1 0-2 0-3-1 0-1-1-1-1 0-1 0-1-1-2 0 0 0-2-1-3 0-2 0-4 0-4l-1-2c0-1 0-1 0-2 0-1 1-2 2-2 1 1 2 1 3 2 2 1 3 1 5 2l0 0 3 0 2 1 3 0 1 0c1 0 1 0 2-1l2-2c0-3 0-5-2-6z m79 40l0-1c0 0-1-2-2-4-1-2-3-4-4-4l-2 0c0 0-1 0-1-1l-5-5c-1-1-2-2-3-3l-1-1-1 0c-1 0-1-1-2-2 0-1-1-2-1-2l-2 0c-1 0-2-1-3-3-1-1-2-2-3-3l-1-2c0 0-1-1-2-1-1-1-2-1-2-2 0-1-1-1-2-2 0 0-1 0-1-1l0-1c0 0-1 0-2-1-1-1-2-2-3-5-2-2-3-3-4-4 0 0 0 0 0-1-1 0-1-1-2-1 0 0-1-1-1-2-1-1-1-2-2-2 0-1 0-1-1-3-1-2-1-3-2-3-1 0-1-1-1-1 1-2 2-3 4-3 0 0 0 0 0 0 1 0 1 1 2 1 2 0 2 1 3 1 0 0 1 1 2 1l0 0 2 0 5 2 1 1 2 0c1 0 1 1 2 1 0 1 1 1 1 1 0 1 1 1 1 1l2 0 2 1 4 2c0 0 2 0 5 1 0 0 1 0 2 0 0 0 1 0 1 0 0 0 1 0 2 1 1 0 2 0 2 0 4 1 6 1 6-1l3-3c1-1 1-2 1-2l0-1 0-1 1-1c0-2 0-3-1-3-1-1-1-1-1-1l0 0c-2-1-3 0-5 2l-1-1-1 0c0 0-1 0-2 0 0 0-1 0-2 1l-1-1c0 0 0 0-1 0 0 0-1-1-1-1 0 0 0 0-1 0 0 1 0 1 0 1-1-1-2-1-4-2l-10-4-2 0c-1 0-2-1-3-2-1 0-1-1-1-1l-3 1-10-5c-1 0-1 0-2 1 0 0-1 0-1 0 0 0 0 0 0-1 0-1-1-1-2-1-2-1-4-1-5 0 0 0-1 0-1 0l-2 0c0 1 0 1-1 2l-1 2-1 1c-1 1-1 2-1 3-1 5-1 8 0 9 1 2 2 3 2 3 1 3 3 6 6 10l2 4c0 0 1 0 1 0 0 1 1 1 2 3 1 2 2 3 3 4 1 0 2 1 3 3l3 3c1 2 3 4 6 7l1 1 1 0 1 1c1 1 2 2 3 2l5 5 3 2c1 0 2 1 3 2 1 1 2 2 3 3l2 1 2 1c0 1 1 1 2 2 1 1 2 2 2 2 1 1 2 2 3 3 2 1 2 2 2 3 0 1-1 2-2 2-1 0-2 0-3 0 0 0-1 1-1 1l-4-1-1 0c-1 0-2 0-2 0-1 0-1-1-2-1-1 0-1-1-1-1l-3 0c0 0-2-1-4-2l0 0c-1-1-1-1-1-1l-2 0-3-3c-1 0-2-1-2-1-1-1-1-1-2-1 0-1-1-1-1-1l-2 0c0 0-1 0-1-1 0-1-1-1-1-1-2 0-4 1-4 6-1 1 0 3 1 5 1 2 2 3 3 3l6 2c0 0 1 0 2 0l0 0 2 2c1 0 1 0 1 0l3 1 5 1 7 1c2 0 3 0 4 0l1 0c2 1 5-1 8-4 1-1 2-1 3-3 1-1 2-2 3-5 0-1 0-2-1-4z m65-22c-2-2-4-2-6-3l-2 0-4-1c0 0-1 0-2 0l-5-1-3-1c-1 0-2 0-3 1l0 0c0 0-1-1-2-1-1-1-1-1-2-2-1 0-2 0-3 0-1 1-2 1-2 1 0 0 0-1-1-1-1-1-1-1-2-1l-3 0-5-1-3 0-1 0-2-1c-2-1-4 1-4 4 0 1 0 1 0 2 0 1 1 2 3 3l3 1 1-1 0 0 1 1 2 0 6 1 3 0c0 0 1 1 1 1 0 0 1 0 1 1l3 0 1 0 2 1 2 0c2 1 3 1 4 1l0 0 4 1 2 0c2 2 4 2 5 3l3 0 2 1 3-1 2 1c0 0 0-1 1-1 1-1 2-2 2-2 0-3-1-5-2-6z m7 23c-2-1-4-2-6-3l-2 1-3-2c-2 0-4 0-6 0l-2 0-3-2c-1 0-1 0-3 1l0 0c0 0-1-1-2-1-1-1-1-1-2-1-1-1-2-1-3 0-1 0-2 0-2 0 0 0-1-1-1-1-1 0-1-1-2-1l-4 0-7-1-3-1c-2 0-3 1-4 5-1 2 0 3 2 3 1 0 2 1 4 2l0 0c1 0 1 0 1 0l1 0 2 0 7 1 2 1c0 0 1 0 1 0 0 0 1 1 1 1l3 0 1 1c1 0 2 0 2 0 1 0 2 0 2 0 1 0 1 0 2 0 0 1 1 1 2 1l0 0c0 0 1 0 2 0l1 0 1 1c1 0 1 0 3 1 1 1 2 1 4 2l3 0 3 1 2-1 2 1c0 0 0-1 1-1 1-1 2-2 2-2 0-3 0-5-2-6z m78 2c-1-1-2-2-3-2 0-1-1-1-2-1 0-1-1-1-3-2-1-1-3-2-4-3l0-1c-1 0-1 1-2 1 0 0 0 0 0 0l-3-2c0 0-1 0-1 0l0 0c-1 0-1 0-3-1-1 0-1 0-1 0 0 0-1-2-2-5-1-4-2-6-2-6l0-2c1 0 0 0 0-1 0-1 0-1 0-2 0-1 0-2 0-3l-2 0c0 0 0 0 0-1 0 0 0 0 1-1l0 0c0-1 0-1-1-2l0-1c0-1 0-2 0-3 0 0 0-2 0-3 0 0 0-1 0-3l1-5 0-4-1-1c0 0 0 0 0-1 0 0 0 0-1 0 0 0 0 0-1 0 0 0-1 0-2 1-1 0-2 1-4 2l-2 2c-1 0-1 0-2 1 0 0 0 1-1 1-1 1-1 1-2 2 0 2 0 3 1 5l0 0c0 1 0 1 0 1 0 0 1 1 1 2l0 2c1 2 1 3 2 3 0 0 1 1 1 1l-1 0c0 0 0 0 0 1-1 2 0 5 1 7l1 1c0 1 0 2 1 3 0 1 0 2 0 3 0 1 1 3 1 5l0 0c0 1-1 2-1 2l-2-1-1 0c-3-1-4-1-5 0-1 1-1 1-1 1l-2-1c-2 0-3 0-3 1-1 0-1 0-1 0l-5-2c-1 0-1 0-1 1-1 0-1 0-1 0 0 0 0 0-1 0 0-1 0-1 0-1l-2 0-1-1c-1 0-3 1-5 2-2 1-4 2-4 5 0 1 0 1 1 2 0 1 1 1 1 1l4 6 2 0 0 1c0 0 0 0 0 0-1 1 0 2 0 3 0 1 1 2 2 3l1 1c0 1 1 2 2 3l0 1c1 0 1 1 1 1l2 0c0 1 0 2 0 2l2 1c0 0 0 0 0 0 1 0 1 0 1 0 0 0 0 0 0 0l0 2c-1 0 0 1 0 2 1 0 1 1 2 2 0 0 1 1 2 2l1 2c0 1 1 1 1 2 1 0 2 1 2 3 1 2 2 3 3 3 0 0 1 1 2 2l1 1-1 3c0 0 0 0 0 0 0 0 1 0 3 0 0 0 0 1 0 1 1 0 1-1 2-2 0-2-1-2-1-3-1 0-2-2-2-5l0-2c-2-1-3-3-3-6 0 0 0-1 0-1l-2 0c0-1 0-2 0-3 0-1 0-2-1-2l-1 0c0 0-1-1-1-2 0-1 0-1 0-1-1-1-2-2-2-4 0 0-1-1-1-2l-1-2-1-1c-1-1-2-2-3-4 0-2-1-3-2-4 0-1 0-2 0-2 0-1 1-2 4-1 0 0 1 0 1 0 1 0 2 0 2-1 1 0 2 0 3 0 1 0 2 0 3 0l3 0 2 0 0 0 3 1c1 0 1 1 2 2 0 1 0 3 1 4 1 1 1 2 1 3l1 1c0 0 0 1 0 2 0 1 1 2 2 3 1 1 1 2 1 2l-1 1c0 0 1 1 1 2l1 2c0 1 0 2 1 3 0 1 0 2 0 2 0 1 0 2 0 2 0 0 1 0 1 2 0 1 1 1 1 1l1 1c0 0 0 1 1 1 0 3 0 4 0 4l0 2c1 0 1 0 1 1 1 1 1 1 1 1l0 0c1 1 1 1 1 2l0 2-1 0c0 1 0 2 1 5 0 2 1 4 1 4 2 0 3 0 5-2 1-1 2-4 3-7 0-1 0-2-1-3-1-1-1-3-1-5-1-2-1-4-2-4 0-1-1-2-1-3 0-1 0-3 0-4 0-1-1-2-1-3-1 0-1-2-1-4 0 0-1-1-1-1-1 0-2 0-2-1 1-3 0-5-1-7-1 0-1-1-1-2 0-1 0-2 0-3 0-1 0-1 0-1 0-1 0-1 0-1 2 0 3 1 4 2 1 0 2 1 4 2 1 0 2 1 3 2 1-1 2-1 3-1 0 0 1 0 2-1l3-1c1 0 2-1 2-1 0-2 0-3-1-3z"/>
<glyph unicode="&#84;" d="M389 322c0 1 0 2 0 2 0 50-38 91-84 91-19 0-36-7-49-18-14 11-31 18-50 18-46 0-84-41-84-91 0-1 0-1 0-2 0-4 0-8 0-12 0-68 60-122 134-122 73 0 133 54 133 122 0 4 0 8 0 12z m-125 86c0 1 3 50 39 65l-5 12c-44-18-48-74-48-76z m-186-234l137-35 297 65 0 23-131 11c-26-38-72-64-125-64-45 0-85 18-112 47-33-6-64-12-82-16-57-14-62-62-62-62-3-54 35-71 35-71l172-51 299 70 1 30-300-74c0 0-127 36-137 37-9 2-46 15-46 55 0 40 54 35 54 35z m172 254c19 57-56 63-56 63-9-73 56-63 56-63z"/>
<glyph unicode="&#85;" d="M101 259c20-18 50-16 67 4 7 7 10 15 12 24l-60 53c-9-2-16-7-23-14-17-19-16-49 4-67z m267-222c48 39 78 99 78 165 0 100-68 184-161 208l40 45c10 10 9 27-2 37l-15 13c-11 10-27 9-37-2l-49-55c-46 21-102 10-137-29-5-5-9-11-12-16l174-157c5 4 10 9 15 14 20 23 30 51 30 79 36-5 100-22 120-83 2-7 4-14 5-21 0 0 0 0 0 0 14-93-40-144-129-161-18 4-37 6-57 6-81 0-148-34-165-80l330 0c-5 14-15 26-28 37z m-135 385l-2-4-5 2 0 0c-2 1-5 2-7 3-3 0-6 1-8 2-6 1-11 2-16 2-3 1-6 1-8 1-3 0-6 0-8 0-3 0-6 0-8-1-3 0-6 0-8-1l-8-2-7-2c-2-1-4-3-6-4-3-1-5-2-7-3-2-2-4-3-6-5l-5-5c-2-1-4-3-5-5l-5-6-20 14 7 8c2 2 4 4 7 6l8 6c2 2 5 4 8 5 3 2 6 3 9 4 3 2 6 3 9 4l9 2 9 2c3 0 6 0 10 0 3 0 6 0 9 0 3 0 6 0 9-1 3 0 6-1 9-1 6-1 12-3 17-5 3 0 6-2 9-3 1 0 3-1 4-1l56 55 3-2z"/>
<glyph unicode="&#86;" d="M444 400c-7 19-54 28-68 42-14 15-24 61-42 69-19 7-58-19-78-19-20 0-59 26-78 19-18-8-28-54-42-69-14-14-61-23-68-42-8-18 18-58 18-78 0-20-26-59-18-78 7-18 54-27 68-42 14-14 24-60 42-68 1 0 3-1 4-1l0 72c-39 25-64 68-64 117 0 77 62 139 138 139 76 0 138-62 138-139 0-49-25-92-64-117l0-72c1 0 3 1 4 1 18 8 28 54 42 68 14 15 61 24 68 42 8 19-18 58-18 78 0 20 26 60 18 78z m-84-77c0 57-46 103-103 103-57 0-103-46-103-103 0-34 17-65 43-84l0-239 58 68 62-68 0 239c26 19 43 50 43 84z"/>
<glyph unicode="&#87;" d="M95 480l0-80 70 40z m6-92l56-96 32 0-63 110z m117-96l32 0-78 137-25-14z m165 163c3 29-14 55-37 57-23 2-44-20-46-50l-16-170 84 0z m-44-149l-22 2 14 155 22-2z m64-26l-294 0c-18 0-30-12-27-26 3-14 14-26 24-26 10 0 21-14 24-32l22-138c2-17-2-31-10-31-7 0-13-6-11-14 1-7 17-13 35-13l180 0c18 0 34 6 35 13 2 8-4 14-11 14-8 0-12 14-10 31l22 138c3 18 14 32 24 32 10 0 21 12 24 26 3 14-9 26-27 26z m-220-238c0 2-17 144-23 171-4 21-28 29-28 29l6 21c2-1 37-12 43-46 6-27 23-166 23-172z"/>
<glyph unicode="&#88;" d="M136 201c29-53 85-86 146-86 28 0 56 8 81 21 81 45 110 147 65 228-29 53-85 86-146 86-28 0-56-7-81-21-81-45-110-147-65-228z m200 125l-49-27-21 37c16 10 29 21 39 31 11-12 22-26 31-41z m-108-87l49 27 21-37c-16-10-29-20-39-30-11 11-22 25-31 40z m-37 112c-1 22 4 38 12 49l30-54c-14-7-28-12-40-15-1 7-2 14-2 20z m54-26l21-38-50-27c-7 16-14 32-18 47 14 4 30 9 47 18z m65-117l30-54c-2 0-3-1-5-1-18 0-39 11-59 29 9 8 20 18 34 26z m51-43l-30 55c14 7 28 11 40 14 5-29 2-54-10-69z m-42 76l-21 37 50 27c7-16 14-32 18-47-14-4-30-9-47-17z m-65 116l-30 55c2 0 3 0 5 0 18 0 39-11 59-28-9-9-20-18-34-27z m-87 12c0-6 0-12 0-18 0-8 1-16 2-25-9-1-18-1-24-1 5 15 12 30 22 44z m-27-68c2 0 3-1 6-1 7 0 17 1 28 3 5-18 12-37 21-55l-44-24c-11 25-14 51-11 77z m23-98l44 24c11-17 23-33 35-46-9-11-16-21-20-28-24 11-44 28-59 50z m82-59c3 6 8 12 14 20 12-10 24-18 35-24-4 0-8-1-12-1-13 0-25 2-37 5z m152 53c1 13 0 27-2 42 10 1 18 2 24 2-5-16-12-31-22-44z m27 68c-8 0-20 0-34-2-5 17-12 36-21 54l44 25c11-25 14-52 11-77z m-23 98l-44-25c-11 18-23 33-35 47 9 11 16 21 20 28 24-11 44-28 59-50z m-82 58c-3-5-8-12-14-19-12 10-24 18-35 23 4 1 8 1 12 1 13 0 25-2 37-5z m58-309c-46-25-99-31-149-17-50 14-91 47-117 93-52 94-18 213 76 265 23 13 48 21 74 24l-3 24c-25-3-49-10-72-21l-18 32-21-12 18-32c-98-61-132-190-75-292 29-51 75-88 132-104 16-5 32-7 48-8l0-40-131 0 0-24 286 0 0 24-131 0 0 40c29 1 57 8 84 21l18-32 21 12-18 32c17 11 33 24 47 40l-18 16c-15-17-32-30-51-41z"/>
<glyph unicode="&#89;" d="M200 512l-28 0-119-119 0-393 406 0 0 512z m-11-169l134 0 0-19-134 0z m202-68l0-19-270 0 0 19z m-219 190l0-72-73 0z m-51-256l270 0 0-19-270 0z m135-153l-135 0 0 19 135 0z m89-45l-9 10-13-3 13 41 22-7z m40 10l-9-10-13 41 22 7 13-41z m-24 38c-23 0-41 18-41 41 0 23 18 41 41 41 23 0 41-18 41-41 0-23-18-41-41-41z"/>
<glyph unicode="&#90;" d="M382 27l7 51-19-3z m-178 0l12 48-19 3z m185 200l-36 0-32 126c12 8 20 22 20 38 0 23-16 43-38 47l0 47-20 0 0-47c-21-4-38-24-38-47 0-16 8-30 21-38l-32-126-37 0 0-9 34 0-34-135 20-5 35 140 37 0 0-33 9 0 0 33 36 0 35-140 20 5-34 135 34 0 0 9z m-96 189c14 0 25-11 25-24 0-14-11-25-25-25-13 0-24 11-24 25 0 13 11 24 24 24z m5-189l0 33-9 0 0-33-34 0 30 118c2-1 5-1 8-1 3 0 6 0 9 1l30-118z m-111-152l0 7 2 8 8 34-132 0 0 133 144-87 9 37-31 0 0 30 35 0-222 133 0-307 189 0z m176-12l-2 7-25 99-28 16 0-11-30 0 0 29-7 4-11 0-15-58 41-25-47 0-14-54-1-7z m34 0l115 0-127 76 13-49 2-8-1-7z"/>
<glyph unicode="&#48;" d="M509 219c3 3 4 8 2 13l-68 181c-2 4-5 7-9 8-4 1-8 1-11-1l-61-38c-7-4-9-12-5-19 4-6 13-8 19-4l47 29 40-108c-19 12-42 20-67 20-37 0-71-16-92-41l-96 0c-21 25-54 41-92 41-25 0-48-8-67-20l40 108 47-29c6-4 15-2 19 4 4 7 2 15-5 19l-61 38c-3 2-7 2-11 1-4-1-7-4-9-8l-68-181c-2-5-1-10 2-13-2-8-3-16-3-24 0-58 52-105 116-105 64 0 117 47 117 105 0 15-4 28-10 41l66 0c-6-13-10-26-10-41 0-58 53-105 117-105 64 0 116 47 116 105 0 8-1 16-3 24z m-393-101c-49 0-88 34-88 77 0 43 39 77 88 77 49 0 89-34 89-77 0-43-40-77-89-77z m280 0c-49 0-89 34-89 77 0 43 40 77 89 77 49 0 88-34 88-77 0-43-39-77-88-77z"/>
<glyph unicode="&#49;" d="M256 512c-141 0-256-115-256-256 0-141 115-256 256-256 141 0 256 115 256 256 0 141-115 256-256 256z m0-451c-108 0-195 87-195 195 0 108 87 195 195 195 108 0 195-87 195-195 0-108-87-195-195-195z m0 373c-98 0-178-80-178-178 0-98 80-178 178-178 98 0 178 80 178 178 0 98-80 178-178 178z m0-337c-88 0-159 71-159 159 0 88 71 159 159 159 88 0 159-71 159-159 0-88-71-159-159-159z m-5 168l-81 0 0-18 91 0 74 114-16 10z m-4 140l18 0 0-30-18 0z m0-268l18 0 0-31-18 0z m128 128l30 0 0-18-30 0z m-268 0l30 0 0-18-30 0z"/>
<glyph unicode="&#50;" d="M503 363l-140 140c-11 11-28 12-37 3l-26-26c-9-9-7-25 4-36l3-3c11-11 12-27 3-36l-49-49c-57 26-121 21-161-19-2-3-4-5-6-7l235-236c3 2 5 4 8 6 40 40 45 104 19 161l49 49c9 9 25 8 36-3l3-3c11-11 27-13 36-4l26 26c9 9 8 26-3 37z m-503-363l213 174-39 39z"/>
<glyph unicode="&#51;" d="M486 372c-5 5-13 12-19 21l23 95-348 24-122-372c-4-9-7-17-8-25l0-1 0 0c-2-9-1-18 3-27 9-26 38-41 51-43 7-1 27-4 28-4l318-40 89 369z m-417-307c-5 1-27 11-34 30-4 11-2 25 6 39 15 5 35 9 62 7 52-4 187-21 254-29-7-13-9-26-7-40 2-18 11-33 20-45l-274 35c-5 0-21 2-27 3z m328-35c-10 10-24 26-26 45-1 11 2 22 9 33 10-1 16-2 16-2l64 261c6-6 11-11 15-14z"/>
<glyph unicode="&#52;" d="M423 512l-334 0c-22 0-39-18-39-39l0-433c0-22 17-40 39-40l334 0c22 0 39 18 39 40l0 433c0 21-17 39-39 39z m-245-472l-73 0 0 30 73 0z m0 52l-73 0 0 30 73 0z m0 52l-73 0 0 31 73 0z m0 52l-73 0 0 31 73 0z m0 53l-73 0 0 30 73 0z m114-209l-72 0 0 30 72 0z m0 52l-72 0 0 30 72 0z m0 52l-72 0 0 31 72 0z m0 52l-72 0 0 31 72 0z m0 53l-72 0 0 30 72 0z m115-209l-73 0 0 30 73 0z m0 52l-73 0 0 30 73 0z m0 52l-73 0 0 31 73 0z m0 52l-73 0 0 31 73 0z m0 53l-73 0 0 30 73 0z m12 98l-326 0 0 119 326 0z m-185 78c1 1 2 2 4 3 1 1 2 1 2 2l0-62 9 0 0 73-4 0c-1-1-2-2-4-3-2-1-4-2-6-3-1-1-3-2-5-3-2-1-4-2-6-2l0-8c1 0 3 1 5 1 1 1 3 2 5 2z m65-50l7 0 0 20 20 0 0 6-20 0 0 20-7 0 0-20-20 0 0-6 20 0z m88 1l-36 0c0 2 1 3 1 5 1 1 1 3 3 4 1 2 3 3 5 5 2 2 5 4 8 6 3 2 5 4 7 6 2 2 4 4 5 6 2 2 3 4 3 6 1 2 1 5 1 8 0 3 0 6-1 8-1 2-3 4-5 6-2 2-4 3-6 4-3 1-5 1-8 1-4 0-8-1-11-2-3-1-5-3-7-5l0-9c1 2 2 3 3 4 2 1 3 2 5 3 1 0 2 1 4 1 2 1 3 1 5 1 2 0 3 0 5-1 1 0 3-1 4-2 1-1 2-3 3-4 1-2 1-4 1-6 0-2 0-4-1-6 0-1-1-3-2-5-1-1-3-3-4-5-2-1-4-3-7-5-3-3-6-5-9-7-2-2-4-4-6-6-1-3-3-5-3-7-1-2-1-5-1-8l0-4 44 0z"/>
<glyph unicode="&#53;" d="M336 117c-32-6-54-36-48-68 6-32 36-54 68-48 32 6 53 36 48 68-6 32-36 54-68 48z m16-91c-19-4-36 9-39 27-4 18 9 36 27 39 18 3 36-9 39-27 3-19-9-36-27-39z m111 198c-32 6-62-16-68-48-6-32 16-62 48-68 32-5 62 16 68 48 6 32-16 62-48 68z m23-64c-3-18-20-30-39-27-18 3-30 21-27 39 3 18 21 31 39 27 18-3 31-20 27-39z m-194-2l0 0 49-9 25-3-3 25-9 49 0 0-8 43-13 74-14 81c-3 14-14 34-24 44l-49 44c-10 10-17 7-14-8l30-174 14-74 2-16-16 2-74 14-174 30c-15 3-18-4-8-14l44-49c10-10 30-21 44-24l81-14 74-13 43-8 0 0z m17 45c6 7 17 7 23 0 7-6 7-17 0-23-6-7-17-7-23 0-7 6-7 17 0 23z"/>
<glyph unicode="&#54;" d="M113 415c10 0 19 12 19 27l0 43c0 15-9 27-19 27-11 0-19-12-19-27l0-43c0-15 8-27 19-27z m143 0c10 0 19 12 19 27l0 43c0 15-9 27-19 27-10 0-19-12-19-27l0-43c0-15 9-27 19-27z m143 0c11 0 19 12 19 27l0 43c0 15-8 27-19 27-10 0-19-12-19-27l0-43c0-15 9-27 19-27z m56 50l-23 0 0-23c0-25-15-45-33-45-18 0-33 20-33 45l0 23-77 0 0-23c0-25-15-45-33-45-18 0-33 20-33 45l0 23-77 0 0-23c0-25-15-45-33-45-18 0-33 20-33 45l0 23-23 0c-31 0-57-32-57-71l0-323c0-39 26-71 57-71l398 0c31 0 57 32 57 71l0 323c0 39-26 71-57 71z m1-397l-400 0 0 291 400 0 0-291z m-367 245l71 0 0-39-71 0z m131 0l72 0 0-39-72 0z m132 0l72 0 0-39-72 0z m-263-90l71 0 0-39-71 0z m131 0l72 0 0-39-72 0z m132 0l72 0 0-39-72 0z m-263-90l71 0 0-39-71 0z m131 0l72 0 0-39-72 0z m132 0l72 0 0-39-72 0z"/>
<glyph unicode="&#55;" d="M212 379l-141 0-71-123 71-123 141 0 71 123z m229-115l71 123-71 122-141 0-71-122 71-123z m-141-16l-71-123 71-122 141 0 71 122-71 123z"/>
<glyph unicode="&#56;" d="M411 76c-11 37-7 66 12 98 17 27 32 54 44 82 20 49 24 125-5 172-19 31-44 57-78 68-31 9-62 15-94 16-38 0-67 2-116-16 0 0-55-29-71-61-16-31-28-59-31-94-4-34 2-58-21-85-10-12-32-24-16-40 8-8 29-2 36-11 13-15-10-25 18-33 0-9-9-11-11-18-3-9 0-11 3-18 3-9 9-17 10-24 1-8-4-14-2-22 8-39 62-12 87-11 37 2 51-35 62-65 2-5 3-10 4-14l232 0c-18 27-53 42-63 76z m-131 127c-72 0-130 58-130 130 0 72 58 130 130 130 71 0 130-58 130-130 0-72-59-130-130-130z m-47 134c0-16-13-30-30-30-17 0-30 14-30 30 0 17 13 31 30 31 17 0 30-14 30-31z m78 0c0-16-13-30-30-30-17 0-30 14-30 30 0 17 13 31 30 31 17 0 30-14 30-31z m78 0c0-16-13-30-30-30-17 0-30 14-30 30 0 17 13 31 30 31 17 0 30-14 30-31z"/>
<glyph unicode="&#57;" d="M463 512l-414 0c-27 0-49-22-49-49l0-414c0-27 22-49 49-49l414 0c27 0 49 22 49 49l0 414c0 27-22 49-49 49z m-207-456c-55 0-100 45-100 100 0 55 45 100 100 100 55 0 100-45 100-100 0-55-45-100-100-100z m158 231l-316 0 0 202 316 0 0-202z m-97-131c0-34-27-61-61-61-34 0-61 27-61 61 0 33 27 61 61 61 34 0 61-28 61-61z m-164 220l206 0 0-21-206 0z m0 62l206 0 0-21-206 0z"/>
<glyph unicode="&#33;" d="M455 328c-10-16-28-26-47-26-9 0-18 2-26 7-24 16-31 49-14 75l14 23-331 0c-28 0-51-23-51-51l0-288c0-28 23-51 51-51l393 0c28 0 51 23 51 51l0 288c0 9-3 17-7 24z m-329-176l-58 0 0 114 56 0 0-21-35 0 0-24 33 0 0-21-33 0 0-27 37 0z m80 20l-69 0 0 16 69 0z m0 35l-69 0 0 16 69 0z m112-55l-20 0 0 45c0 12-3 19-9 19-5 0-8-4-10-9 0-2 0-4 0-7l0-48-20 0 0 46c0 11-3 18-10 18-5 0-8-5-9-9-1-2-1-5-1-7l0-48-20 0 0 56c0 11 0 20 0 27l17 0 1-11 0 0c3 5 9 13 20 13 8 0 15-6 18-14l0 0c3 4 6 7 9 10 3 2 7 4 12 4 13 0 22-11 22-36z m52 19c4 0 8 1 11 2l3-19c-4-2-11-4-19-4-21 0-34 17-34 43 0 24 13 44 37 44 6 0 12-1 16-4l-3-19c-3 2-6 3-12 3-10 0-17-10-17-23 0-16 8-23 18-23z m56 37l-36 0 0 10 7 7c11 13 16 20 16 27 0 5-2 10-8 10-4 0-8-3-11-6l-3 11c4 4 9 7 16 7 12 0 18-9 18-20 0-11-6-20-13-28l-5-5 0 0 19 0z m71 281c-16 11-39 5-50-13l-65-101c-11-18-7-41 9-51 16-11 39-5 50 13l65 101c11 18 7 41-9 51z"/>
<glyph unicode="&#34;" d="M290 326l-113 41 39-118z m211-224l-25 26-74-77 25-26c15-16 39-16 53-1l21 22c15 15 15 40 0 56z m-202 215l-75-78 169-179 75 77z m99-224l-140 148 6 7 140-149z m-108 182l6 6 140-149-6-6z m27-181l-93 66-206-141 0 476 296 0 0-173 16-16 0 206-330 0 0-512 330 67 0 42-13 14z m-239 281l0 103-12 0-21-12 3-10 17 9 0 0 0-90z m46 19l-11-10 0-9 63 0 0 12-44 0 0 0 8 8c21 21 34 36 34 55 0 15-9 30-30 30-12 0-21-4-28-10l4-10c5 4 12 8 21 8 15 0 19-9 19-20 0-15-11-28-36-54z m92-9c-10 0-18 4-22 6l-4-10c5-4 15-7 26-7 23 0 36 14 36 30 0 15-10 24-22 27l0 0c12 5 18 14 18 24 0 13-9 25-28 25-11 0-21-4-26-8l4-10c4 3 11 7 19 7 12 0 17-8 17-16 0-12-12-17-22-17l-7 0 0-11 7 0c13 0 26-6 26-20 0-9-5-20-22-20z"/>
<glyph unicode="&#35;" d="M480 407l-285 0c-18 0-33-15-33-32l0-221c0-17 15-32 33-32l102 0 0-21-69 0 0-27 218 0 0 27-69 0 0 21 103 0c17 0 32 15 32 32l0 221c0 17-15 32-32 32z m-4-237l-278 0 0 201 278 0z m-378-5c0-14-12-26-26-26-15 0-27 12-27 26 0 15 12 27 27 27 14 0 26-12 26-27z m-98-91l139 0 0 364-139 0z m82 47l0-6c0-12-6-21-13-21-6 0-12 9-12 21l0 7c-18 6-31 23-31 43 0 25 21 46 46 46 25 0 45-21 45-46 0-21-15-39-35-44z m-65 279l104 0 0-35-104 0z"/>
<glyph unicode="&#36;" d="M459 512l-406 0c-29 0-53-24-53-53l0-281c0-29 24-53 53-53l157 0 0-54-106 0 0-71 304 0 0 71-106 0 0 54 157 0c29 0 53 24 53 53l0 281c0 29-24 53-53 53z m0-340l-406 0 0 293 406 0z m-192 36c34 0 58 7 72 14l-7 28c-15-7-32-11-60-11-39 0-73 21-74 74l152 0c0 4 1 11 1 19 0 39-19 101-89 101-63 0-101-51-101-116 0-65 39-109 106-109z m-8 197c44 0 55-39 54-63l-114 0c3 27 20 63 60 63z"/>
<glyph unicode="&#37;" d="M166 58c-2 4-4 12-5 16-1 4-2 12-3 16-6 60 33 122 96 149 4 2 11 5 14 6 5 2 13 5 18 6 6 1 23 6 23 6 16 5 32 7 48 7 26 0 49-6 70-16l0 82-4 4 4 5 0 95-231 0 0-223-50 95-49-95 0 223-28 0c-20 0-37 12-37 27 0 16 17 28 37 28l358 0 0 23-363 0c-35 0-64-30-64-66l0-330c0-36 29-66 64-66l106 0c-2 2-3 5-4 8z m206 83c2 10 10 19 21 22l5 2c11 3 23 0 28-8l43 13c-17 51-75 79-138 68l26-101z m101 15l-43-13c-1-10-9-19-21-22l-5-2c-11-3-22 0-28 8l-15-5 26-101c58 25 95 81 86 135z m-131-150l27 8c2 1 5 2 7 3l-56 219c-2-1-5-1-7-2l-27-8c-72-22-118-88-103-149 16-60 87-92 159-71z m112 329c26-26 38-76 38-112 0-15-3-42-18-47l6-21c14 5 32 20 32 68 0 16-2 35-6 53-7 28-19 56-38 75z"/>
<glyph unicode="&#38;" d="M512 365l-36 91c0 0-147-10-220 56-73-66-220-56-220-56l-36-91c32-55 30-119 24-163-21-151 232-202 232-202 0 0 253 51 232 202-6 44-8 108 24 163z m-47 0c-22-47-28-103-20-168 4-24-2-46-19-67-14-19-36-36-66-51-39-21-81-33-102-39l-2 0-2 0c-21 6-63 18-102 39-30 15-52 32-66 51-17 21-23 43-19 67 8 65 2 121-20 168l-1 2 20 50 4 0c51 1 124 10 182 43l4 3 4-3c58-33 131-42 182-43l4 0 20-50z m-209 71c-57-30-124-39-173-42l-10-26c21-50 27-108 18-174-3-18 2-34 14-50 13-16 33-31 59-45 35-19 72-30 92-35 20 5 57 16 92 35 26 14 46 29 59 45 12 16 17 32 14 50-9 66-3 124 18 174l-10 26c-49 3-116 12-173 42z"/>
<glyph unicode="&#39;" d="M497 317c2 4 3 9 2 13l-66 173c-1 4-4 7-8 8-4 2-8 1-11-1l-58-36c-6-4-8-12-5-18 4-6 12-8 19-5l44 28 39-103c-18 12-41 19-65 19-35 0-67-15-87-38l-93 0c-20 23-52 38-87 38-24 0-47-7-65-19l39 103 44-28c7-3 15-1 19 5 3 6 1 14-5 18l-58 36c-3 2-7 3-11 1-4-1-7-4-8-8l-66-173c-1-4 0-9 2-13-2-7-3-14-3-22 0-56 50-101 112-101 61 0 111 45 111 101 0 14-3 27-9 39l63 0c-6-12-9-25-9-39 0-56 50-101 111-101 62 0 112 45 112 101 0 8-2 15-3 22z m-376-96c-47 0-85 33-85 74 0 41 38 74 85 74 47 0 85-33 85-74 0-41-38-74-85-74z m267 0c-47 0-85 33-85 74 0 41 38 74 85 74 47 0 85-33 85-74 0-41-38-74-85-74z m124-54l0 15-393 0c-66 0-119-41-119-91 0-50 53-91 119-91l393 0 0 15c-32 4-57 37-57 76 0 39 25 72 57 76z m-64-141l-329 0c-50 0-91 30-91 65 0 35 41 65 91 65l329 0c-13-18-21-40-21-65 0-25 8-47 21-65z"/>
<glyph unicode="&#40;" d="M389 390l-289 0 123-337 289 0z m-240-34l216 0 98-269-216 0z m-149-204l160 0-83 220z m72 255l311 0c19 0 35 11 35 26 0 14-16 26-35 26l-311 0c-19 0-34-12-34-26 0-15 15-26 34-26z m294-193c-1 0-1 0-2 0l-20 86c6 3 10 10 10 17 0 12-10 22-22 22-11 0-21-10-21-22 0-11 10-21 21-21 2 0 3 0 4 0l20-84c-2-1-4-3-6-4l-51 46c1 2 2 6 2 9 0 11-9 20-20 20-11 0-20-9-20-20 0-8 5-15 13-18l-14-73c-11-1-20-10-20-21 0-12 10-22 21-22 12 0 22 10 22 22 0 9-6 17-14 20l13 72c4 1 8 2 11 4l51-46c-3-4-4-8-4-14 0-14 12-26 26-26 15 0 26 12 26 26 0 15-11 27-26 27z"/>
<glyph unicode="&#41;" d="M512 239c-3 29-37 85-61 103-21 15-87 4-104 25-4 6-6 18-6 31l26 0 0 63c0 21-15 39-32 39l-158 0c-17 0-32-18-32-39l0-63 26 0c0-13-2-25-6-31-17-21-82-10-104-25-24-18-58-74-61-103-6-60 77-227 77-227l358 0c0 0 83 167 77 227z m-481 20c10 24 30 53 44 64 5 3 25 5 36 5 28 3 57 5 72 24 8 11 11 28 11 46l124 0c0-18 3-35 11-46 15-19 44-21 72-24 11 0 31-2 36-5 14-11 34-40 44-64z"/>
<glyph unicode="&#42;" d="M403 466c-116 81-276 52-357-63-81-116-52-276 63-357 116-81 276-52 357 63 81 116 52 276-63 357z m67-332l-22 12 5 9 22-12z m13 25l-15 6 4 10 15-6z m10 28l-25 6 3 11 24-7z m6 27l-16 3 2 10 15-2z m3 25l-25 1 0 11 25-1z m-1 39l1-10-15-2-1 11z m-2 18l-24-5-2 11 24 4z m-110-133c-3-5-7-10-10-14l-266 185c3 5 6 10 10 15 51 74 153 92 226 40 74-51 92-153 40-226z m101 170l3-10-15-4-3 10z m-8 22l4-10-23-9-4 10z m-13 25l5-9-14-7-5 9z m-15 22l7-9-21-14-6 9z m-17 22l7-8-12-10-7 7z m-22 20l8-7-16-19-8 7z m-22 17l8-6-9-13-8 6z m-14 9l-12-22-9 5 12 22z m-25 12l-6-14-10 4 6 14z m-28 10l-7-24-10 3 7 24z m-28 7l-2-16-10 2 2 15z m-22 3l-1-25-11 0 2 25z m-28 0l1-15-11-1-1 16z m-23-1l4-25-10-2-4 25z m-27-6l4-15-10-2-4 15z m-26-7l9-24-10-3-9 23z m-26-11l7-14-9-5-7 14z m-27-16l14-21-8-6-15 21z m-23-17l11-12-8-7-10 12z m-21-20l19-17-7-8-19 17z m-18-22l13-9-6-9-13 9z m-15-24l22-12-5-9-22 12z m-13-25l15-6-4-10-15 6z m-10-28l25-6-3-11-24 7z m-6-27l16-3-2-10-15 2z m-3-25l25-1 0-11-25 1z m1-39l-1 10 15 2 1-11z m2-18l24 5 2-11-24-4z m9-37l-3 10 15 4 3-10z m8-22l-4 10 23 9 4-10z m63 97l217-151c-47-17-102-12-147 20-45 31-69 81-70 131z m-50-122l-5 9 14 8 5-10z m15-22l-7 9 21 14 6-9z m17-22l-7 8 12 10 7-7z m22-20l-8 7 16 19 8-7z m22-17l-8 6 9 13 8-6z m14-9l12 22 9-5-12-22z m25-12l6 14 10-4-6-14z m28-10l7 24 10-3-7-24z m28-7l2 16 10-2-2-15z m22-3l1 25 11 0-2-25z m28 0l-1 15 11 1 1-16z m23 1l-4 25 10 2 4-25z m27 6l-4 15 10 2 4-15z m26 7l-9 24 10 3 9-23z m26 11l-7 14 9 5 7-14z m27 16l-14 21 8 6 15-21z m23 17l-11 12 8 7 10-12z m21 20l-19 17 7 8 19-17z m5 31l6 9 13-9-6-9z"/>
<glyph unicode="&#43;" d="M389 68l0 330-202 0c2 15 9 51 46 66 7-9 19-15 34-15 22 0 40 14 40 31 0 18-18 32-40 32-22 0-40-14-40-32 0 0 0 0 0-1-46-18-55-63-57-81l-47 0 0-330-30 0 0-68 326 0 0 68z m-70 31l-126 0 0 211 126 0 0-211z m-110 194l94 0 0-177-94 0z"/>
<glyph unicode="&#44;" d="M480 74l0 438-37 0 0-152-56 0 0 41 15 0 0 32-123 0 0-32 15 0 0-41-76 0 0 41 15 0 0 32-123 0 0-32 15 0 0-41-56 0 0 152-37 0 0-438-32 0 0-74 101 0 0 74-32 0 0 274 56 0 0-165c0-29 21-53 47-53 25 0 46 24 46 53l0 165 76 0 0-165c0-29 21-53 46-53 26 0 47 24 47 53l0 165 56 0 0-274-32 0 0-74 101 0 0 74z m-290 194c0-4-3-7-7-7-4 0-7 3-7 7 0 3 3 7 7 7 4 0 7-4 7-7z m-55 19c0 6 4 11 10 11 6 0 11-5 11-11 0-6-5-10-11-10-6 0-10 4-10 10z m17-66c0 6 5 12 12 12 7 0 12-6 12-12 0-7-5-13-12-13-7 0-12 6-12 13z m25-69c-7 0-13 6-13 13 0 8 6 13 13 13 7 0 13-5 13-13 0-7-6-13-13-13z m22 68c-5 0-9 4-9 9 0 5 4 9 9 9 5 0 9-4 9-9 0-5-4-9-9-9z m159 48c0-4-3-7-7-7-3 0-7 3-7 7 0 3 4 7 7 7 4 0 7-4 7-7z m-55 19c0 6 5 11 10 11 6 0 11-5 11-11 0-6-5-10-11-10-5 0-10 4-10 10z m17-66c0 6 5 12 12 12 7 0 12-6 12-12 0-7-5-13-12-13-7 0-12 6-12 13z m25-69c-7 0-13 6-13 13 0 8 6 13 13 13 7 0 13-5 13-13 0-7-6-13-13-13z m22 68c-5 0-9 4-9 9 0 5 4 9 9 9 5 0 10-4 10-9 0-5-5-9-10-9z"/>
<glyph unicode="&#45;" d="M94 148l98 0 0-65-98 0z m0 281l98 0 0-65-98 0z m368 83l-412 0c-28 0-50-19-50-43l0-426c0-24 22-43 50-43l412 0c28 0 50 19 50 43l0 426c0 24-22 43-50 43z m-239-456l-160 0 0 119 160 0z m0 141l-160 0 0 118 160 0z m0 140l-160 0 0 119 160 0z m226-245l-180 0 0 31 180 0z m0 148l-180 0 0 32 180 0z m0 149l-180 0 0 31 180 0z m-257-100l-98 0 0-66 98 0z m-37-55l-7 8c-2 3-4 5-6 8l0 0c-1-3-3-5-5-8l-6-8-18 0 20 22-19 22 18 0 6-8c2-3 3-5 5-8l0 0c2 3 3 5 5 8l6 8 18 0-20-22 21-22z"/>
<glyph unicode="&#46;" d="M459 363c22 0 40 19 40 42 0 22-18 41-40 41-22 0-40-19-40-41 0-23 18-42 40-42z m53-58c0 22-18 41-40 41l-20 0c-11 0-22-5-29-14l-73 78c-10 11-26 14-34 6-8-8-6-24 5-35l92-97 0-78c0-1 0-3 0-5 0-1 0-3 0-5l0-137c0-16 9-29 20-29 11 0 20 13 20 29l0 107 19 0 0-107c0-16 9-29 20-29 11 0 20 13 20 29l0 137c0 2 0 4 0 5 0 2 0 4 0 5z m-116-19l-39 40 0-48-277 0 0 190 277 0 0-48 39-41 0 104c0 16-13 29-28 29l-299 0c-15 0-28-13-28-29l0-218-11 0 0-50 376 0 0 50-10 0 0 21z m-272 135l145 0 0-16-145 0z m254-288c0-19-16-34-35-34-19 0-35 15-35 34 0 20 16 35 35 35 19 0 35-15 35-35z m-23-44l-24 0c-27 0-50-22-50-49l0-40 123 0 0 40c0 27-22 49-49 49z m-118 44c0-19-16-34-35-34-19 0-35 15-35 34 0 20 16 35 35 35 19 0 35-15 35-35z m-23-44l-24 0c-27 0-49-22-49-49l0-40 123 0 0 40c0 27-22 49-50 49z m-118 44c0-19-15-34-34-34-20 0-35 15-35 34 0 20 15 35 35 35 19 0 34-15 34-35z m-22-44l-25 0c-27 0-49-22-49-49l0-40 123 0 0 40c0 27-22 49-49 49z"/>
<glyph unicode="&#47;" d="M305 321l-258 0c-26 0-47-21-47-47l0-184c0-25 21-47 47-47l140 0 36-28c18-19 48-19 66 0 0 0 63 57 63 75l0 184c0 26-21 47-47 47z m-228-149c-20 0-37 16-37 36 0 21 17 37 37 37 20 0 36-16 36-37 0-20-16-36-36-36z m99 0c-20 0-36 16-36 36 0 21 16 37 36 37 20 0 36-16 36-37 0-20-16-36-36-36z m100 0c-20 0-36 16-36 36 0 21 16 37 36 37 20 0 36-16 36-37 0-20-16-36-36-36z m29 174c29 0 53-17 65-41 2 5 3 11 3 16 0 28-23 51-51 51-19 0-35-11-44-26z m17 91c-55 0-102-39-113-91l19 0c11 42 49 73 94 73 54 0 98-44 98-98 0-33-17-63-43-80l0-22c37 20 61 58 61 102 0 64-52 116-116 116z m0 74c-96 0-176-72-188-165l38 0c12 72 75 128 150 128 84 0 153-69 153-153 0-64-41-120-98-142l0-39c78 23 135 96 135 181 0 105-85 190-190 190z"/>
<glyph unicode="&#58;" d="M407 277l47 133-291 102-64-184-37 0c-13 0-24-11-24-24l0-221c0-46 38-83 84-83l268 0c46 0 84 37 84 83l0 112c0 40-29 74-67 82z m-227 200l239-84-41-115-138 0-6 26c0 13-11 24-24 24l-82 0z m190-107l-172 60-8-22 173-60z m-192 6l173-61-8-22-172 61z"/>
<glyph unicode="&#59;" d="M499 200l-27 27c-14 14-19 33-9 42 9 10 4 29-10 43l-141 141c-14 14-33 19-43 10-9-10-28-5-42 9l-27 27c-15 15-35 17-47 6l-36-36c-11-11-8-32 6-47l92-92-215-216 114-114 216 215 92-92c15-14 36-17 47-6l36 36c11 12 9 32-6 47z m-380-176l-39 38 9 9 39-39z m20 19l-55 55 9 9 55-55z m22 22l-39 39 9 9 38-39z m19 20l-54 54 8 9 55-54z m22 22l-39 39 9 8 39-38z m20 19l-55 55 9 9 55-55z m22 22l-39 39 9 9 39-39z m19 20l-54 55 9 8 54-54z m22 22l-38 39 8 9 39-39z m20 20l-55 54 9 9 55-55z"/>
<glyph unicode="&#60;" d="M475 108c-46-46-116-39-151-4l-200 200c-51 51-29 88-11 106 22 22 58 37 106-11l202-202c10-10 10-26 0-35-10-10-25-10-35 0l-202 202c-23 23-29 18-36 11-6-7-12-13 11-36l200-200c15-15 56-22 81 4 26 26 15 61 0 77l-223 223c-15 15-76 41-130-14-49-48-28-112-12-128l258-259c10-9 10-25 0-35-10-9-25-9-35 0l-258 259c-34 33-59 128 12 198 75 76 167 47 200 14l223-223c35-35 46-102 0-147z"/>
<glyph unicode="&#61;" d="M485 120c8 14 12 31 12 49 0 56-46 102-102 102-38 0-72-21-89-53l-161 81c1 4 1 9 1 13 0 10-2 19-6 28l71 62c10-7 22-11 35-11 33 0 61 27 61 60 0 34-28 61-61 61-33 0-61-27-61-61 0-12 5-24 11-34l-68-60c-12 13-29 21-48 21-36 0-65-29-65-66 0-36 29-65 65-65 24 0 45 13 57 32l160-80c-3-10-4-20-4-30 0-13 2-25 6-36l-89-36c-11 18-31 30-53 30-35 0-64-29-64-64 0-35 29-63 64-63 35 0 63 28 63 63 0 5-1 10-2 14l91 37c18-29 50-48 86-48 21 0 41 7 57 18 14 9 25 21 33 36z"/>
<glyph unicode="&#62;" d="M193 242l-92 0c-27 0-49-22-49-49l0-93c0-27 22-49 49-49l92 0c27 0 49 22 49 49l0 93c0 27-22 49-49 49z m2-108l-36 0 0-37-24 0 0 37-37 0 0 25 37 0 0 36 24 0 0-36 36 0z m216 327l-92 0c-27 0-49-22-49-49l0-93c0-27 22-49 49-49l92 0c27 0 49 22 49 49l0 93c0 27-22 49-49 49z m-26-146l-21 31-20-31-31 0 36 52-35 49 33 0 17-28 19 28 31 0-34-48 37-53-32 0z m26-73l-92 0c-27 0-49-22-49-49l0-93c0-27 22-49 49-49l92 0c27 0 49 22 49 49l0 93c0 27-22 49-49 49z m3-129l-97 0 0 25 97 0z m0 42l-97 0 0 25 97 0z m-221 306l-92 0c-27 0-49-22-49-49l0-93c0-27 22-49 49-49l92 0c27 0 49 22 49 49l0 93c0 27-22 49-49 49z m-5-109l-82 0 0 27 82 0z m244 160l-352 0c-44 0-80-35-80-79l0-354c0-44 36-79 80-79l352 0c44 0 80 35 80 79l0 354c0 44-36 79-80 79z m45-433c0-25-20-45-45-45l-352 0c-25 0-45 20-45 45l0 354c0 25 20 45 45 45l352 0c25 0 45-20 45-45z"/>
<glyph unicode="&#63;" d="M461 469l-123 42c-15 4-31-3-35-18l-93-271c-5-15-2-29 6-32 9-2 11-16 6-31l-1-3c-5-15 3-31 18-35l6-3c-1-4-3-8-4-12-15-44-16-84-2-89 14-4 37 28 52 72 1 4 3 8 4 12l7-2c14-5 30 3 35 17l1 4c5 14 16 24 24 21 8-3 19 7 24 21l92 272c5 14-3 30-17 35z m-207-249c7-7 18-22 12-40-5-21-11-33-11-33l-14 6c0 0 5 11 11 31 4 15-11 27-12 27l-4 3 88 260 15-5z m-20-204c0 0-3 1-9 2-2 0-6 1-10 1-4 1-8 1-13 2-20 3-46 5-72 6-6 1-13 1-19 1-4 1-7 1-10 1-2 0-3 0-5 0-1 0-3 0-4 0-1 0-2 0-3 1-1 0-2 0-3 0l-2 1-2 0c-1 0-2 1-2 1-4 2-8 4-11 6-3 2-6 4-8 6-1 1-2 3-3 4-1 0-3 1-4 1-3 1-7 1-10 1-3-1-5-1-5-1l0 0c-1 0-2-1-2-2 0 0-1 0-1-1-1-1-1-2-2-3-1-3-2-7-1-10 0-2 1-4 2-6 1-1 3-3 4-5 4-3 8-6 13-10 5-3 11-6 17-8 7-2 15-4 22-4 2 0 4 0 5 0 2 0 3 0 5 0 3 0 6 0 10 1 6 0 13 0 19 1 26 1 52 4 72 6 5 1 9 1 13 2 4 0 8 1 10 1 6 1 9 2 9 2 1 0 1 1 2 1 0 1-1 2-2 2z"/>
<glyph unicode="&#64;" d="M0 512l0-501 154 0 0 501z m144-452l-135 0 0 24 135 0z m0 46l-135 0 0 14 135 0z m-112 153c0 28 20 50 45 50 25 0 45-22 45-50 0-28-20-50-45-50-25 0-45 22-45 50z m112 182l-135 0 0 14 135 0z m22 71l0-501 154 0 0 501z m144-452l-135 0 0 24 135 0z m0 46l-135 0 0 14 135 0z m-111 153c0 28 20 50 44 50 25 0 45-22 45-50 0-28-20-50-45-50-24 0-44 22-44 50z m111 182l-135 0 0 14 135 0z m10-30l66-411 126 25-65 411z m177-347l-110-23-3 21 110 22z m-6 37l-110-22-2 12 110 22z m-111 108c-4 22 10 44 30 48 20 4 40-11 43-34 4-22-10-44-30-48-20-4-40 11-43 34z m68 167l-111-22-2 12 111 22z"/>
<glyph unicode="&#91;" d="M203 463c0 27-22 49-50 49-28 0-51-22-51-49 0-27 23-48 51-48 28 0 50 21 50 48z m304-182c-6 7-14 11-23 11l-160 0c-2 0-4 0-6 0 10 4 20 10 30 17 13 8 16 25 8 37-9 13-27 16-39 7-21-14-42-20-61-22l0 0c-39 1-49 34-49 34l0 0c-5 19-22 34-44 36l-4 0c-9 0-18-2-26-6-2-1-3-2-5-3 0 0 0 0 0 0-1-1-1-1-1-1-11-8-18-20-19-34l-8-148c-2-23 14-42 36-48 10-4 23-7 38-7 3-1 5-1 8-1 19 0 47-1 54-13 4-5 11-28-27-98-7-13-2-29 12-36 4-2 8-3 13-3 10 0 20 5 25 14 38 69 46 117 26 150-19 32-56 38-85 40l4 73c12-3 25-4 39-4 20 0 42 3 65 12-7-5-12-13-12-23 0-15 13-27 28-27l121 0-61-181-51 0c-16 0-29-12-29-27 0-15 13-27 29-27l71 0c0 0 0 0 0 0 0 0 0 0 0 0l76 0c15 0 28 12 28 27 0 15-13 27-28 27l-37 0 68 200c2 8 1 17-4 24z m-351-164c10 1 18 8 18 18 0 10-9 18-19 18l-71 0c-1 131-49 187-51 190-7 7-19 8-26 2-8-7-9-18-3-26 1 0 46-53 42-183 0-5 2-10 5-13 2-2 4-3 7-4l-44-93c-5-10 0-20 9-24 2-1 5-2 8-2 7 0 14 4 17 11l47 99c1 2 1 5 1 7l20 0c0-2 1-5 2-7l47-99c3-7 10-11 17-11 2 0 5 1 7 2 10 4 14 14 10 24z"/>
<glyph unicode="&#93;" d="M400 412l-35 0 0-29-7 0 0 129-204 0 0-129-7 0 0 29-35 0 0-58 288 0z m-229 84l170 0 0-113-170 0z m277-150l-384 0c-35 0-64-27-64-60l0-157c0-33 29-60 64-60l41 0 0 122 302 0 0-122 41 0c35 0 64 27 64 60l0 157c0 33-29 60-64 60z m-328-346l272 0 0 181-272 0z m16 166l240 0 0-151-240 0z m54 311l132 0 0-7-132 0z m0-33l132 0 0-8-132 0z m0-33l132 0 0-8-132 0z m-24-270l180 0 0-10-180 0z m0-45l180 0 0-11-180 0z m0-46l180 0 0-10-180 0z"/>
<glyph unicode="&#94;" d="M387 38l-1 1-81 69-289 160 73-75 32-22 267-136c0 0 3 0 8 0-3 1-6 2-9 3z m106 192l-74 81-293 162c-17 9-39 3-49-14l-72-132c-10-17-4-39 14-49l292-162 81-69c17-10 40-3 49 14l67 120c9 17 3 40-15 49z m-169-100l-12 6 89 159 12-6z m-203 327l119-68-93-161-116 63c0 0-27 12-15 35 12 22 75 131 75 131 0 0 10 11 30 0z"/>
<glyph unicode="&#95;" d="M469 445l-426 0c-24 0-43-19-43-43l0-292c0-24 19-43 43-43l426 0c24 0 43 19 43 43l0 292c0 24-19 43-43 43z m24-335c0-13-11-24-24-24l-426 0c-13 0-24 11-24 24l0 292c0 13 11 24 24 24l426 0c13 0 24-11 24-24z m-100 153c5 2 9 6 9 11 0 5-3 10-10 10-7 0-11-4-11-9 0-6 5-10 12-12z m-1-29c7 0 12 4 12 10 0 8-6 11-14 14-7-2-11-7-11-13 0-6 5-11 13-11z m-137 38c0 3 1 6 1 9l-1 0c-1-3-3-6-5-9l-14-20 0 0 19 0 0 20z m-190-140l382 0 0 248-382 0z m318 128c-7 4-10 9-10 14 0 9 9 16 19 16 12 0 18-7 18-15 0-5-3-10-10-14l0 0c7-3 12-8 12-16 0-10-9-17-21-17-12 0-20 7-20 16 0 8 5 13 12 16z m-86 6l47 0 0-6-47 0z m0-19l47 0 0-5-47 0z m-69 4l26 38 9 0 0-37 9 0 0-7-9 0 0-16-8 0 0 16-27 0z m-63 23l9 0 7-10c1-3 3-5 4-7l1 0c1 2 2 5 4 7l6 10 9 0-15-22 15-23-9 0-6 10c-2 3-4 5-5 8l0 0c-2-3-3-5-5-8l-6-10-9 0 15 23z m-64-40l6 6c16 15 23 22 23 31 0 7-3 12-12 12-6 0-10-3-13-5l-3 6c5 3 11 6 17 6 13 0 19-9 19-18 0-11-8-20-21-32l-5-4 0 0 27 0 0-7-38 0z"/>
<glyph unicode="&#96;" d="M119 401c14 52 0 101-31 110-32 8-69-27-83-78-14-52 0-101 31-110 32-9 69 26 83 78z m206-58c10 35 4 69-14 77l-189 81c19-27 25-66 14-105-11-38-35-69-66-82l204-30c19-3 42 23 51 59z m108 25l-100 43c8-17 9-44 2-71-8-27-22-49-38-60l107-15c0 0 0 0 0 0 12-2 26 19 34 46 7 27 5 53-5 57z m74-32l-62 27c5-13 4-33-2-54-6-21-15-38-25-46l66-10c7-1 18 16 24 38 6 22 6 42-1 45z m-243-72l-24 0-91-233 17-7 25 66 64-39 0-51 18 0 0 51 64 38 26-65 17 7-91 233z m-71-169l53 0 0 5-51 0 57 146 3 0 0-188z m80-38l0 189 3 0 57-146-51 0 0-5 53 0 1-1z"/>
<glyph unicode="&#123;" d="M24 390l464 0c13 0 24 10 24 21 0 12-11 21-24 21l-122 0c-16 47-59 80-110 80-51 0-94-33-110-80l-122 0c-13 0-24-9-24-21 0-11 11-21 24-21z m232 109c44 0 81-27 97-67l-194 0c16 40 53 67 97 67z m232-457l-464 0c-13 0-24-9-24-21 0-12 11-21 24-21l464 0c13 0 24 9 24 21 0 12-11 21-24 21z m-397 123c-17 0-31-15-31-32 0-18 14-32 31-32 17 0 31 14 31 32 0 17-14 32-31 32z m142 112c-17 0-31-15-31-32 0-18 14-32 31-32 17 0 31 14 31 32 0 17-14 32-31 32z m108-112c-18 0-32-15-32-32 0-18 14-32 32-32 17 0 31 14 31 32 0 17-14 32-31 32z m-327 212l0-321 484 0 0 321z m407-128c-3 0-7 0-10 1l-36-81c9-9 15-22 15-36 0-28-22-51-49-51-28 0-50 23-50 51 0 10 3 20 9 28l-38 42c-8-6-18-9-29-9-13 0-24 5-33 13l-67-47c4-8 7-17 7-27 0-28-22-51-49-51-27 0-50 23-50 51 0 28 23 51 50 51 11 0 21-4 29-10l69 48c-3 7-5 15-5 23 0 28 22 51 49 51 27 0 49-23 49-51 0-10-3-20-8-28l39-42c8 5 17 9 28 9 6 0 13-2 18-4l35 77c-13 9-22 25-22 43 0 28 22 51 49 51 27 0 50-23 50-51 0-29-23-51-50-51z m0 83c-17 0-31-15-31-32 0-18 14-33 31-33 17 0 31 15 31 33 0 17-14 32-31 32z"/>
<glyph unicode="&#124;" d="M430 410c-6 8-13 16-20 23-50 50-118 72-183 65l24-223z m-229 50c-50-5-98-27-135-64-88-88-88-230 0-317 87-88 229-88 317 0 40 40 62 93 65 146l-224 12z m266-57l-179-135 224-12c2 51-12 104-45 147z"/>
<glyph unicode="&#125;" d="M511 320c-4 11-33 17-41 26-9 9-14 39-26 43-11 5-35-11-47-11-12 0-36 16-47 11-11-4-17-34-26-43-8-9-36-15-41-26-5-12 11-37 11-50 0-13-16-37-11-49 5-12 33-18 41-27 9-9 15-38 26-43 1 0 2-1 3-1l0 46c-24 15-40 43-40 74 0 49 38 88 84 88 46 0 84-39 84-88 0-31-16-59-39-74l0-46c1 0 2 1 2 1 12 5 17 34 26 43 8 9 37 15 41 27 5 12-11 36-11 49 0 13 16 38 11 50z m-165-298l0 114c-1 0-1 0-2 0-12 5-18 19-24 33-2 5-5 12-7 14-1 1-8 5-13 7-13 6-26 12-31 25-5 12 0 27 5 40 2 5 5 13 5 15 0 3-3 10-5 15-5 14-10 28-5 41 5 13 18 19 31 25 5 2 12 5 13 7 2 1 5 9 7 14 6 13 12 27 24 32 3 2 7 2 11 2 2 0 3 0 5 0 10 17 25 89 48 106-116 0-232 0-348 0-208-152 209-360 0-512 116 0 232 0 348 0 15 11 26 21 35 32l-46 53z m104 114c0 0 0 0-1 0l0-96c24 34 23 68 10 102-3-3-6-5-9-6z m-53-27l37-43 0 152c16 12 26 31 26 53 0 36-28 65-62 65-35 0-63-29-63-65 0-22 10-41 26-53l0-152z"/>
<glyph unicode="&#126;" d="M178 147l0-147c144 43 254 0 254 0l0 147-126-72z m-74 250l127 85 0 5-1 0c0 1 0 2 0 2-2 4-6 5-10 3-1-1-7-5-17-12-27-2-39 5-45 10-1 2-2 3-3 4l5 4c3 2 4 7 2 10-2 4-6 5-9 3l-141-94c-2-2-12-10-12-21 0 0 0 0 0 0l0-287c0 0 14-53 76-16 4 2 7 4 11 6l0 102-13 8 13 7 0 156 7 14c3 6 7 9 9 11z m-30-6c-6-4-25-8-55 2-4 2-5 3-5 3 0 2 3 6 5 8l130 87c1-2 2-4 4-6 8-8 21-12 39-13-41-28-112-76-118-81z m23-311c0 0 13-49 68-21l0 98-68 39z m0 287c0 0 0 0 0 0l0-145 209 118 22-12 0 130 0 0c0 1-1 1-1 2-2 4-6 5-9 3-2-1-8-5-17-12-27-2-40 4-45 10-2 1-3 3-4 4l5 3c3 2 4 7 2 11-2 4-6 5-9 3l-141-95c-2-1-12-10-12-20z m20 8l129 86c1-2 3-4 5-6 8-8 20-12 38-12-41-28-111-76-118-81-5-5-25-8-55 2-4 2-5 3-5 3 0 2 3 5 6 8z m395-357l-33 61c2 3 3 6 3 9 0 8-5 14-12 15l-18 81-139 61 164-55 34 19-205 115-204-115 204-115 128 72-94 54 103-45 17-74c-4-3-6-8-6-13 0-7 3-12 8-15l-3-71 11-1 2 47 11-48 10 3-11 47 21-38z"/>
<glyph unicode="&#92;" d="M350 341l0 96-190 0 0-213-41 90-40-90 0 213-24 0c-16 0-30 12-30 26 0 15 14 27 30 27l295 0 0 22-299 0c-29 0-53-29-53-63l0-316c0-35 24-64 53-64l150 0c-17 27-26 59-26 94 0 97 78 177 175 178z m3-20c-89 0-160-72-160-161 0-88 71-160 160-160 89 0 161 72 161 160 0 89-72 161-161 161z m-78-284l37 48 1 2c23-13 55-5 55-5l18-65c-72-14-111 20-111 20z m78 53c-39 0-70 32-70 70 0 39 31 70 70 70 39 0 70-31 70-70 0-38-31-70-70-70z m40 140c-23 15-54 9-54 9l-15 65c73 10 110-26 110-26z m-40-19c-28 0-50-23-50-51 0-27 22-50 50-50 28 0 50 23 50 50 0 28-22 51-50 51z m0-85c-19 0-34 15-34 34 0 19 15 35 34 35 19 0 34-16 34-35 0-19-15-34-34-34z"/>
<glyph unicode="&#57344;" d="M433 125c-45-46-108-74-177-74-69 0-132 28-177 74-30-31-61-73-74-125l502 0c-13 52-44 94-74 125z m-177-41c118 0 214 96 214 214 0 118-96 214-214 214-118 0-214-96-214-214 0-118 96-214 214-214z m0 368c85 0 154-69 154-154 0-85-69-154-154-154-85 0-154 69-154 154 0 85 69 154 154 154z m93-154c0-51-42-93-93-93-51 0-93 42-93 93 0 52 42 93 93 93 51 0 93-41 93-93z"/>
<glyph unicode="&#57345;" d="M378 344c-33 33-87 33-121 0-33-34-33-88 0-121 34-33 88-33 121 0 33 33 33 87 0 121z m-105-105c-25 24-25 64 0 89 25 24 64 24 89 0 25-25 25-65 0-89-25-25-64-25-89 0z m228-102c-10 10-68 68-106 91l-21-22c22-37 80-97 90-106 12-13 31-15 41-5 11 11 9 29-4 42z m-13 35l-42 210-29-5 41-178c10-9 20-19 30-27z m-103-8c-63-9-118-35-118-35l-21-10-20 10c0 0-113 53-199 35l49 213-29 5-47-237 246-45 167 31c-9 10-19 22-28 33z m-168 119c0 24 8 47 24 65l0 44c-53 41-141 30-141 30l-53-242c96 13 173-33 194-47l0 85c-16 18-24 41-24 65z m101 101c26 0 52-11 71-30 19-19 29-44 29-71 0-16-4-31-11-45 10-6 21-14 32-23l-46 207c0 0-89 11-141-30l0-33c18 16 41 25 66 25z m45-190c-14-8-29-11-45-11-25 0-48 8-66 24l0-74c15 10 60 37 121 47-4 4-7 9-10 14z"/>
<glyph unicode="&#57346;" d="M337 426l0 66c-21-6-39-31-51-66z m-66-83l66 0 0 62-58 0c-4-19-7-40-8-62z m139 83c-12 35-31 60-52 66l0-66z m-131-166l58 0 0 62-66 0c1-22 4-43 8-62z m153 166l51 0c-20 29-50 52-84 63 14-16 25-37 33-63z m6-21c4-19 7-40 7-62l67 0c-1 22-7 43-17 62z m0-145l57 0c10 19 16 40 17 62l-67 0c0-22-3-43-7-62z m-101-88l0 67-51 0c12-35 30-60 51-67z m-137 233c-9-19-15-40-16-62l66 0c1 22 3 43 8 62z m63-166l-51 0c21-29 50-52 85-63-14 15-25 37-34 63z m-13 83l-66 0c1-22 7-43 16-62l58 0c-5 19-7 40-8 62z m182-83c-8-26-19-48-33-63 34 11 64 34 84 63z m-7 83l-67 0 0-62 58 0c5 19 8 40 9 62z m-67-83l0-67c21 7 40 32 52 67z m58 166l-58 0 0-62 67 0c-1 22-4 43-9 62z m-153 21c9 26 20 47 34 63-35-11-64-34-85-63z m141-269l0-14-358 0 0 259 131 0c7 16 16 32 27 45l-162 0c-23 0-42-18-42-41l0-283c0-23 19-42 42-42l132 0 0-27-89 0 0-34 280 0 0 34-89 0 0 27 132 0c23 0 41 19 41 42l0 56c-14-9-29-17-45-22z"/>
<glyph unicode="&#57347;" d="M87 143c-16-41-27 125 6 157 1-17 7-20 11-35 9 28 9 60 21 89 11 26 25 47 47 64 4-7 6-14 10-21 24 84 113 77 173 115 2-15-6-32-8-47-1-16-2-32-8-47-15-39-44-48-73-70 14 1 26 3 40 3-23-5-24-28-33-44-12-22-28-25-49-37 13 3 30-3 39-11-30-21-35-58-62-80-21-18-75-33-82-62l-49-87c0 0 90 303 195 378 0 0-78 3-178-265z m5-143c-11 0-23 4-32 15-4 5-4 12 1 16 4 3 11 3 15-2 10-11 19-9 40-1 4 1 9 3 13 4 12 3 24 7 36 11 35 11 70 23 109 25 11 0 20-3 28-6 4-2 8-4 13-5 14-2 25-3 33-2 10 2 20 9 30 17 4 2 7 5 10 7 2 1 4 2 6 4 14 10 32 22 51 21 6-1 10-6 10-12-1-6-6-11-12-10-11 1-25-9-37-17-2-2-4-3-5-4-3-2-6-4-10-7-11-8-24-18-40-21-11-1-24 0-41 3-6 1-11 3-16 6-7 2-13 5-19 4-36-2-68-12-103-24-12-3-24-7-37-11-4-1-8-3-12-4-9-3-20-7-31-7z"/>
<glyph unicode="&#57348;" d="M512 372l-1 1 0 1-1 0-138 134 0 2-372 0 0-372 2 0-2-1 140-133 0-2 371 0 0 370z m-49 2l-91 0 0 89z m16-321l-107 104 0 184 107 0z m-446 402l107-105 0-179-107 0z m139-114l167 0 0-170-167 0z m167 33l-177 0-106 103 283 0z m-293-236l94 0 0-89z m126 0l172 0 106-103-278 0z"/>
<glyph unicode="&#57349;" d="M266 296l0 99-20 0 0-99c-25-5-43-26-43-53 0-14 5-26 14-36l-38-50 15-12 38 51c7-4 15-6 24-6 30 0 53 24 53 53 0 27-18 48-43 53z m213-53c0 124-100 224-223 224-123 0-223-100-223-224 0-66 29-126 75-167l-20-76 27 0 62 35c24-10 51-15 79-15 28 0 55 5 79 15l62-35 27 0-20 76c46 41 75 101 75 167z m-223-168c-93 0-169 75-169 168 0 93 76 169 169 169 93 0 169-76 169-169 0-93-76-168-169-168z m-214 418c-34-28-38-78-10-112l123 102c-28 34-79 39-113 10z m428 0c-34 29-85 24-113-10l123-102c28 34 24 84-10 112z"/>
</font>
</defs>
</svg>
